<svg width="187" height="50" viewBox="0 0 187 50" fill="none" xmlns="http://www.w3.org/2000/svg">
<path d="M20.4015 33.6123C10.701 33.6123 2.56651 40.137 1.14441e-05 49.0701H40.7595C38.2365 40.137 30.102 33.6123 20.4015 33.6123Z" fill="#3D7E9C"/>
<path d="M75.9945 33.6123C66.294 33.6123 58.1595 40.137 55.593 49.0701H96.396C93.873 40.137 85.695 33.6123 75.9945 33.6123Z" fill="#3D7E9C"/>
<path d="M49.503 27C35.67 27 24.012 36.3272 20.4015 49.1139H78.6045C74.994 36.3272 63.336 27 49.503 27Z" fill="#3D7E9C"/>
<path d="M78.628 12.5239C60.271 12.5239 44.785 24.9164 40 41.8193H117.256C112.428 24.9164 96.985 12.5239 78.628 12.5239Z" fill="white"/>
<path d="M183.985 12.5239C165.628 12.5239 150.142 24.9164 145.357 41.8193H222.613C217.828 24.9164 202.342 12.5239 183.985 12.5239Z" fill="white"/>
<path d="M133.786 0C107.556 0 85.4575 17.6911 78.628 41.8631H188.988C182.115 17.6911 160.017 0 133.786 0Z" fill="white"/>
</svg>
