<svg width="174" height="171" viewBox="0 0 174 171" fill="none" xmlns="http://www.w3.org/2000/svg">
<path d="M8.41172 157.296H4.57172V165H2.84372V148.2H4.57172V155.736H8.41172L14.0997 148.2H16.0197L9.77972 156.36L16.3797 165H14.3397L8.41172 157.296ZM23.7687 165.12C22.5527 165.12 21.4567 164.848 20.4807 164.304C19.5047 163.744 18.7367 162.976 18.1767 162C17.6167 161.024 17.3367 159.92 17.3367 158.688C17.3367 157.456 17.6167 156.352 18.1767 155.376C18.7367 154.4 19.5047 153.64 20.4807 153.096C21.4567 152.552 22.5527 152.28 23.7687 152.28C24.9847 152.28 26.0807 152.552 27.0567 153.096C28.0327 153.64 28.7927 154.4 29.3367 155.376C29.8967 156.352 30.1767 157.456 30.1767 158.688C30.1767 159.92 29.8967 161.024 29.3367 162C28.7927 162.976 28.0327 163.744 27.0567 164.304C26.0807 164.848 24.9847 165.12 23.7687 165.12ZM23.7687 163.608C24.6647 163.608 25.4647 163.408 26.1687 163.008C26.8887 162.592 27.4487 162.008 27.8487 161.256C28.2487 160.504 28.4487 159.648 28.4487 158.688C28.4487 157.728 28.2487 156.872 27.8487 156.12C27.4487 155.368 26.8887 154.792 26.1687 154.392C25.4647 153.976 24.6647 153.768 23.7687 153.768C22.8727 153.768 22.0647 153.976 21.3447 154.392C20.6407 154.792 20.0807 155.368 19.6647 156.12C19.2647 156.872 19.0647 157.728 19.0647 158.688C19.0647 159.648 19.2647 160.504 19.6647 161.256C20.0807 162.008 20.6407 162.592 21.3447 163.008C22.0647 163.408 22.8727 163.608 23.7687 163.608ZM33.8185 152.376H35.5225V157.968H43.4665V152.376H45.1705V165H43.4665V159.432H35.5225V165H33.8185V152.376ZM55.2938 165.12C54.0458 165.12 52.9258 164.848 51.9338 164.304C50.9578 163.76 50.1898 163 49.6298 162.024C49.0698 161.032 48.7898 159.92 48.7898 158.688C48.7898 157.456 49.0698 156.352 49.6298 155.376C50.1898 154.4 50.9578 153.64 51.9338 153.096C52.9258 152.552 54.0458 152.28 55.2938 152.28C56.3818 152.28 57.3498 152.496 58.1978 152.928C59.0618 153.344 59.7418 153.96 60.2378 154.776L58.9658 155.64C58.5498 155.016 58.0218 154.552 57.3818 154.248C56.7418 153.928 56.0458 153.768 55.2938 153.768C54.3818 153.768 53.5578 153.976 52.8218 154.392C52.1018 154.792 51.5338 155.368 51.1178 156.12C50.7178 156.872 50.5178 157.728 50.5178 158.688C50.5178 159.664 50.7178 160.528 51.1178 161.28C51.5338 162.016 52.1018 162.592 52.8218 163.008C53.5578 163.408 54.3818 163.608 55.2938 163.608C56.0458 163.608 56.7418 163.456 57.3818 163.152C58.0218 162.848 58.5498 162.384 58.9658 161.76L60.2378 162.624C59.7418 163.44 59.0618 164.064 58.1978 164.496C57.3338 164.912 56.3658 165.12 55.2938 165.12ZM74.0778 152.376L67.7658 166.512C67.2538 167.696 66.6618 168.536 65.9898 169.032C65.3178 169.528 64.5098 169.776 63.5658 169.776C62.9578 169.776 62.3898 169.68 61.8618 169.488C61.3338 169.296 60.8778 169.008 60.4938 168.624L61.2858 167.352C61.9258 167.992 62.6938 168.312 63.5898 168.312C64.1658 168.312 64.6538 168.152 65.0538 167.832C65.4698 167.512 65.8538 166.968 66.2058 166.2L66.7578 164.976L61.1178 152.376H62.8938L67.6458 163.104L72.3978 152.376H74.0778ZM86.4901 152.376V165H84.7861V153.888H78.7381L78.5701 157.008C78.4421 159.632 78.1381 161.648 77.6581 163.056C77.1781 164.464 76.3221 165.168 75.0901 165.168C74.7541 165.168 74.3461 165.104 73.8661 164.976L73.9861 163.512C74.2741 163.576 74.4741 163.608 74.5861 163.608C75.2421 163.608 75.7381 163.304 76.0741 162.696C76.4101 162.088 76.6341 161.336 76.7461 160.44C76.8581 159.544 76.9541 158.36 77.0341 156.888L77.2501 152.376H86.4901ZM96.7582 156.84C98.3422 156.856 99.5422 157.208 100.358 157.896C101.19 158.584 101.606 159.576 101.606 160.872C101.606 162.216 101.158 163.248 100.262 163.968C99.3822 164.688 98.1022 165.04 96.4222 165.024L91.3342 165V152.376H93.0382V156.792L96.7582 156.84ZM96.3262 163.728C97.4942 163.744 98.3742 163.512 98.9662 163.032C99.5742 162.536 99.8782 161.816 99.8782 160.872C99.8782 159.944 99.5822 159.256 98.9902 158.808C98.3982 158.36 97.5102 158.128 96.3262 158.112L93.0382 158.064V163.68L96.3262 163.728ZM112.472 153.888H107.696V165H105.992V153.888H101.216V152.376H112.472V153.888ZM119.28 152.28C120.928 152.28 122.192 152.696 123.072 153.528C123.952 154.344 124.392 155.56 124.392 157.176V165H122.76V163.032C122.376 163.688 121.808 164.2 121.056 164.568C120.32 164.936 119.44 165.12 118.416 165.12C117.008 165.12 115.888 164.784 115.056 164.112C114.224 163.44 113.808 162.552 113.808 161.448C113.808 160.376 114.192 159.512 114.96 158.856C115.744 158.2 116.984 157.872 118.68 157.872H122.688V157.104C122.688 156.016 122.384 155.192 121.776 154.632C121.168 154.056 120.28 153.768 119.112 153.768C118.312 153.768 117.544 153.904 116.808 154.176C116.072 154.432 115.44 154.792 114.912 155.256L114.144 153.984C114.784 153.44 115.552 153.024 116.448 152.736C117.344 152.432 118.288 152.28 119.28 152.28ZM118.68 163.776C119.64 163.776 120.464 163.56 121.152 163.128C121.84 162.68 122.352 162.04 122.688 161.208V159.144H118.728C116.568 159.144 115.488 159.896 115.488 161.4C115.488 162.136 115.768 162.72 116.328 163.152C116.888 163.568 117.672 163.776 118.68 163.776ZM142.08 163.512V168.168H140.472V165H128.928V152.376H130.632V163.512H138.336V152.376H140.04V163.512H142.08ZM145.334 152.376H147.038V162.408L155.462 152.376H156.974V165H155.27V154.968L146.87 165H145.334V152.376ZM171.554 152.376V165H169.994V160.824H166.034H165.554L162.626 165H160.778L163.922 160.584C162.946 160.312 162.194 159.848 161.666 159.192C161.138 158.536 160.874 157.704 160.874 156.696C160.874 155.288 161.354 154.216 162.314 153.48C163.274 152.744 164.586 152.376 166.25 152.376H171.554ZM162.602 156.744C162.602 158.616 163.794 159.552 166.178 159.552H169.994V153.888H166.298C163.834 153.888 162.602 154.84 162.602 156.744Z" fill="white"/>
<path d="M129.7 29.7375H101.233V27.7042C101.221 17.602 93.0355 9.41609 82.9333 9.40417H44.3C34.1979 9.41609 26.0119 17.602 26 27.7042V52.1042C26.0119 62.2063 34.1979 70.3923 44.3 70.4042H46.3333V86.6709C46.3333 87.4929 46.8288 88.2346 47.5883 88.5493C48.3478 88.8641 49.2225 88.6893 49.8043 88.1085L67.5086 70.4042H72.7667V72.4375C72.7786 82.5397 80.9645 90.7256 91.0667 90.7375H102.425L124.196 112.509C124.778 113.089 125.652 113.264 126.412 112.949C127.171 112.635 127.667 111.893 127.667 111.071V90.7375H129.7C139.802 90.7256 147.988 82.5397 148 72.4375V48.0375C147.988 37.9354 139.802 29.7494 129.7 29.7375ZM66.6667 66.3375C66.1276 66.3375 65.6103 66.552 65.229 66.9332L50.4 81.7623V68.3709C50.4 67.248 49.4896 66.3375 48.3667 66.3375H44.3C36.4427 66.3286 30.0756 59.9615 30.0667 52.1042V27.7042C30.0756 19.8469 36.4427 13.4798 44.3 13.4708H82.9333C90.7907 13.4798 97.1577 19.8469 97.1667 27.7042V29.7375H91.0667C80.9645 29.7494 72.7786 37.9354 72.7667 48.0375V66.3375H66.6667ZM143.933 72.4375C143.924 80.2949 137.557 86.6619 129.7 86.6709H125.633C124.51 86.6709 123.6 87.5813 123.6 88.7042V106.162L104.704 87.2666C104.323 86.8853 103.806 86.6709 103.267 86.6709H91.0667C83.2093 86.6619 76.8423 80.2949 76.8333 72.4375V48.0375C76.8423 40.1802 83.2093 33.8131 91.0667 33.8042H129.7C137.557 33.8131 143.924 40.1802 143.933 48.0375V72.4375Z" fill="white"/>
<path d="M133.767 46.0042H87C85.8771 46.0042 84.9667 46.9146 84.9667 48.0375C84.9667 49.1604 85.8771 50.0708 87 50.0708H133.767C134.89 50.0708 135.8 49.1604 135.8 48.0375C135.8 46.9146 134.89 46.0042 133.767 46.0042Z" fill="white"/>
<path d="M133.767 58.2042H87C85.8771 58.2042 84.9667 59.1147 84.9667 60.2376C84.9667 61.3605 85.8771 62.2709 87 62.2709H133.767C134.89 62.2709 135.8 61.3605 135.8 60.2376C135.8 59.1147 134.89 58.2042 133.767 58.2042Z" fill="white"/>
<path d="M133.767 70.4042H87C85.8771 70.4042 84.9667 71.3146 84.9667 72.4375C84.9667 73.5604 85.8771 74.4708 87 74.4708H133.767C134.89 74.4708 135.8 73.5604 135.8 72.4375C135.8 71.3146 134.89 70.4042 133.767 70.4042Z" fill="white"/>
<path d="M38.2 29.7374H80.9C82.0229 29.7374 82.9333 28.827 82.9333 27.7041C82.9333 26.5812 82.0229 25.6708 80.9 25.6708H38.2C37.0771 25.6708 36.1667 26.5812 36.1667 27.7041C36.1667 28.827 37.0771 29.7374 38.2 29.7374Z" fill="white"/>
<path d="M68.7 37.8708H38.2C37.0771 37.8708 36.1667 38.7813 36.1667 39.9042C36.1667 41.0271 37.0771 41.9375 38.2 41.9375H68.7C69.8229 41.9375 70.7333 41.0271 70.7333 39.9042C70.7333 38.7813 69.8229 37.8708 68.7 37.8708Z" fill="white"/>
<path d="M66.6667 50.0708H38.2C37.0771 50.0708 36.1667 50.9812 36.1667 52.1041C36.1667 53.227 37.0771 54.1375 38.2 54.1375H66.6667C67.7896 54.1375 68.7 53.227 68.7 52.1041C68.7 50.9812 67.7896 50.0708 66.6667 50.0708Z" fill="white"/>
</svg>
