<svg width="47" height="59" viewBox="0 0 47 59" fill="none" xmlns="http://www.w3.org/2000/svg">
<g clip-path="url(#clip0)">
<path d="M9.93125 56.4227H9.93082C9.9117 55.6667 9.28276 55.0576 8.50304 55.0418V55.0411H5.70125H4.38709L4.38637 55.0404C4.37649 55.0404 4.36656 55.04 4.35668 55.0397C4.19643 55.0321 4.05258 54.9659 3.9461 54.8626C3.83436 54.754 3.76477 54.6046 3.76264 54.4394L3.76195 54.4387V53.177L3.76264 53.1759C3.76264 53.1661 3.76293 53.1565 3.76336 53.1471C3.77143 52.9914 3.83972 52.8519 3.9461 52.7489C4.05783 52.6399 4.2124 52.5739 4.38242 52.5718H5.70125H9.44116C9.45843 52.5718 9.47541 52.5721 9.49279 52.5721C9.72332 52.5721 9.91029 52.3936 9.91029 52.1697C9.91029 51.9458 9.72332 51.7644 9.49279 51.7644C9.49026 51.7644 9.48743 51.7644 9.48501 51.7644H4.38282C3.58049 51.7676 2.93103 52.3975 2.92989 53.177H2.93032L2.92989 53.2184V54.4436H2.93032C2.93626 55.22 3.58614 55.8477 4.38709 55.8488V55.8484L4.39231 55.8488H7.14855H8.47404L8.4752 55.8495C8.48509 55.8495 8.49501 55.8499 8.50489 55.8502C8.66471 55.8583 8.80895 55.9243 8.91504 56.0277C9.02706 56.1363 9.0968 56.2854 9.0985 56.4508L9.09962 56.4515V57.5847L9.0985 57.5854C9.0985 57.5952 9.0985 57.6047 9.09778 57.6145C9.0897 57.7695 9.02142 57.9098 8.91533 58.0123C8.8036 58.1209 8.64943 58.1885 8.47944 58.1905L8.47831 58.1916H8.44931H7.14743H3.36664V58.192C3.35957 58.1916 3.3525 58.1912 3.34542 58.1912C3.11489 58.1912 2.92777 58.373 2.92777 58.5969C2.92777 58.8204 3.11489 59 3.34542 59C3.3624 59 3.37937 58.9989 3.39592 58.9989H8.41296H8.48324C9.28348 58.993 9.9301 58.3624 9.93125 57.5847H9.93082L9.93125 57.546V56.4227Z" fill="white"/>
<path d="M25.5762 56.4227H25.5755C25.5567 55.6668 24.9273 55.0576 24.148 55.0418V55.0411H21.3462H20.032L20.0313 55.0404C20.021 55.0404 20.0111 55.04 20.0012 55.0397C19.8414 55.0321 19.6971 54.9659 19.5911 54.8626C19.4793 54.754 19.4097 54.6047 19.4076 54.4394L19.4065 54.4387V53.177L19.4076 53.1759C19.4076 53.1662 19.4079 53.1565 19.4083 53.1471C19.4164 52.9914 19.4847 52.8519 19.5908 52.7489C19.7028 52.6399 19.8567 52.5725 20.0267 52.5707L20.0274 52.5701V52.5718H21.3462H25.0861C25.1031 52.5739 25.1204 52.5728 25.1381 52.5728C25.3686 52.5728 25.555 52.3936 25.555 52.1697C25.555 51.9458 25.3683 51.7644 25.1378 51.7644C25.1352 51.7644 25.1324 51.7644 25.13 51.7644H20.0278V51.7624C19.2255 51.7655 18.576 52.3975 18.5749 53.177H18.5753L18.5749 53.2185V54.4436C18.5812 55.22 19.2311 55.8477 20.032 55.8488V55.8484L20.0373 55.8488H22.7935H24.119L24.1197 55.8495C24.1301 55.8495 24.1399 55.8499 24.1499 55.8502C24.3097 55.8583 24.4539 55.9243 24.56 56.0277C24.6717 56.1363 24.7413 56.2854 24.7434 56.4508L24.7446 56.4515V57.5847L24.7434 57.5854C24.7434 57.5953 24.7432 57.6048 24.7427 57.6145C24.7347 57.7695 24.6663 57.9098 24.5603 58.0124C24.4483 58.121 24.2944 58.1885 24.1244 58.1906L24.1232 58.1917H24.0943H22.7921H19.0116V58.1921C19.0045 58.1917 18.997 58.1913 18.99 58.1913C18.7594 58.1913 18.5728 58.373 18.5728 58.5969C18.5728 58.8205 18.7556 58.9982 18.9862 58.9982C19.0034 58.9982 19.0246 58.9993 19.0409 58.9989H24.0579H24.1282C24.9284 58.993 25.5751 58.3625 25.5762 57.5847H25.5758L25.5762 57.546V56.4227Z" fill="white"/>
<path d="M33.3823 56.4226H33.3816C33.3625 55.6667 32.7334 55.0575 31.9541 55.0418V55.041H29.152H27.8381L27.837 55.0404C27.8271 55.0404 27.8172 55.04 27.8073 55.0397C27.6475 55.032 27.5032 54.9658 27.3971 54.8626C27.2851 54.754 27.2154 54.6046 27.2137 54.4393L27.2126 54.4386V53.1769L27.2137 53.1758C27.2137 53.1661 27.2137 53.1565 27.2144 53.147C27.2225 52.9913 27.2908 52.8518 27.3968 52.7489C27.5086 52.6399 27.6627 52.5724 27.8327 52.5707L27.8335 52.57V52.5718H29.152H32.8918C32.9092 52.572 32.9286 52.5727 32.946 52.5727C33.1765 52.5727 33.3611 52.3936 33.3611 52.1696C33.3611 51.9457 33.1744 51.7644 32.9438 51.7644C32.941 51.7644 32.9385 51.7644 32.9356 51.7644H27.8339V51.7623C27.0315 51.7655 26.3821 52.3974 26.381 53.1769H26.3814L26.381 53.2184V54.4436C26.3873 55.2199 27.0369 55.8476 27.8381 55.8487V55.8483L27.8433 55.8487H30.5996H31.9251L31.9258 55.8494C31.9357 55.8494 31.946 55.8498 31.9555 55.8501C32.1157 55.8582 32.2596 55.9242 32.3661 56.0276C32.4778 56.1362 32.5474 56.2853 32.5495 56.4508L32.5502 56.4514V57.5846L32.5495 57.5853C32.5495 57.5952 32.5492 57.6047 32.5488 57.6144C32.5408 57.7694 32.4724 57.9097 32.3661 58.0123C32.2543 58.1209 32.1005 58.1884 31.9305 58.1905L31.9293 58.1916H31.9003H30.5982H26.8173V58.192C26.8102 58.1916 26.8031 58.1912 26.7961 58.1912C26.5655 58.1912 26.3788 58.373 26.3788 58.5969C26.3788 58.8204 26.5645 58.9993 26.7951 58.9993C26.8123 58.9993 26.8304 58.9986 26.847 58.9989H31.864H31.9343C32.7341 58.993 33.3812 58.3624 33.3823 57.5846H33.3819L33.3823 57.5459V56.4226Z" fill="white"/>
<path d="M35.4863 52.1535C35.4814 51.9349 35.2975 51.7588 35.0708 51.7588C34.8442 51.7588 34.6599 51.9349 34.655 52.1535V58.6134C34.6646 58.8285 34.8471 59 35.0708 59C35.2943 59 35.4771 58.8285 35.4866 58.6134V57.7372V52.1535H35.4863Z" fill="white"/>
<path d="M34.6557 51.1565C34.6691 51.3674 34.8499 51.5352 35.0708 51.5352C35.2919 51.5352 35.4722 51.3674 35.4856 51.1565H35.4866V51.1319V50.9784H35.4863H35.4859C35.4771 50.7633 35.2947 50.591 35.0708 50.591C34.8471 50.591 34.6646 50.7633 34.6554 50.9784H34.655V51.1565H34.6557Z" fill="white"/>
<path d="M17.2575 58.1923C17.2504 58.1923 17.2433 58.1927 17.2362 58.193V58.1923H13.4553H12.1531H12.1241L12.123 58.1916C11.953 58.1896 11.7991 58.122 11.6874 58.0134C11.581 57.9105 11.5128 57.7706 11.5047 57.6153C11.5042 57.6057 11.504 57.5959 11.504 57.5865L11.5033 57.5858V55.1982H12.0905H15.201C15.219 55.1979 15.2381 55.199 15.2558 55.199C15.4863 55.199 15.6702 55.0197 15.6702 54.7958C15.6702 54.572 15.4835 54.3906 15.2529 54.3906C15.2501 54.3906 15.2477 54.3909 15.2449 54.3909V54.3906H11.5054V54.3713L11.4944 53.1709L11.495 53.1703C11.495 53.1605 11.4955 53.1506 11.4958 53.1412C11.504 52.9862 11.5721 52.8458 11.6787 52.7429C11.7904 52.6347 11.9384 52.5732 12.1149 52.5658H13.4338H17.1814C17.1997 52.5662 17.2193 52.5662 17.2369 52.5662C17.4675 52.5662 17.6506 52.388 17.6506 52.1641C17.6506 51.9401 17.4639 51.7588 17.2334 51.7588C17.2306 51.7588 17.228 51.7592 17.2256 51.7592V51.7588H12.1152C11.3253 51.7619 10.6839 52.3729 10.6634 53.1358H10.6632L10.6627 53.1576C10.6627 53.1621 10.6624 53.1664 10.6624 53.1709H10.6627L10.6624 53.2128L10.6733 54.0072H10.6712V57.4078L10.6716 57.5858H10.6712C10.6712 57.5913 10.6716 57.5973 10.6719 57.6029V57.6178H10.6724C10.691 58.3804 11.3303 58.9937 12.1192 58.9996V59H12.1895H17.2065C17.2249 58.9996 17.24 58.9996 17.2575 58.9996C17.488 58.9996 17.6747 58.8214 17.6747 58.5979C17.6747 58.3741 17.488 58.1923 17.2575 58.1923Z" fill="white"/>
<path d="M37.4645 54.3906V53.1808L37.4656 53.1797C37.4674 53.015 37.5369 52.8656 37.6492 52.757C37.7552 52.6536 37.899 52.5876 38.0594 52.5795C38.0692 52.5795 38.0789 52.5791 38.0891 52.5791L38.0902 52.5784H41.3256V52.5802H42.6308L42.6316 52.5809C42.6417 52.5809 42.6515 52.5813 42.6616 52.5816C42.8213 52.5896 42.9658 52.6557 43.0715 52.7591C43.1834 52.8677 43.2529 53.0171 43.2551 53.1819L43.2554 53.1826H43.2536V54.3906H37.4645ZM44.0856 53.1829H44.0878C44.0842 52.4164 43.4531 51.7937 42.6671 51.7739V51.7736L42.6446 51.7732C42.6399 51.7732 42.6352 51.7729 42.6308 51.7729V51.7732L42.5878 51.7729H41.7003V51.7707H38.273L38.0902 51.7711V51.7707C38.0836 51.7707 38.0778 51.7711 38.0717 51.7714H38.0565V51.7718C37.2708 51.7898 36.639 52.4105 36.6328 53.1763V53.2444V58.5456C36.6307 58.5618 36.6296 58.5782 36.6296 58.5947C36.6296 58.8182 36.8164 59 37.047 59C37.278 59 37.4645 58.8182 37.4645 58.5947C37.4645 58.5877 37.4645 58.581 37.4641 58.574H37.4645V55.1982H38.4725H43.2536V58.5445C43.2518 58.5611 43.2507 58.5778 43.2507 58.5947C43.2507 58.8182 43.4375 59 43.6682 59C43.8988 59 44.0856 58.8182 44.0856 58.5947C44.0856 58.5922 44.0853 58.5898 44.0853 58.587H44.0856V53.1829Z" fill="white"/>
<path d="M20.3834 21.9106H15.6249L15.6218 21.9074C15.5857 21.9074 15.5497 21.9063 15.5139 21.9046C14.9344 21.8761 14.4126 21.6364 14.0281 21.2632C13.6234 20.8702 13.3709 20.329 13.3638 19.7308L13.3603 19.7276V15.1583L13.3634 15.1551C13.3638 15.12 13.3645 15.0852 13.3662 15.0504C13.3957 14.488 13.6427 13.9816 14.0274 13.6083C14.4323 13.215 14.9896 12.9701 15.6058 12.9634L15.6079 12.9613V12.9672H20.3834H23.9168C23.9984 12.9648 24.0486 12.9672 24.1045 12.9672C24.939 12.9672 25.6157 12.322 25.6157 11.5115C25.6157 10.701 24.939 10.0438 24.1045 10.0438C24.095 10.0438 24.0854 10.0445 24.0759 10.0445V10.0438H15.6093V10.0364C12.7043 10.0484 10.3523 12.3364 10.3485 15.1583H10.3495L10.3485 15.3094V19.7459H10.3488C10.3714 22.5576 12.7241 24.8303 15.6249 24.8345V24.8341L15.644 24.8345H25.6246H30.4249L30.428 24.8375C30.464 24.8375 30.5001 24.8382 30.5359 24.8402C31.115 24.8688 31.6369 25.1083 32.0212 25.4818C32.4264 25.8747 32.6786 26.416 32.6859 27.0142L32.6892 27.0174V31.1199L32.6859 31.123C32.6859 31.158 32.6849 31.193 32.6831 31.2277C32.6538 31.7899 32.407 32.2965 32.0223 32.6696C31.6174 33.0629 31.0599 33.308 30.4435 33.3149L30.4404 33.3183H30.3353H25.62H11.929V33.3197C11.9035 33.3183 11.8777 33.3176 11.8519 33.3176C11.017 33.3176 10.3407 33.9748 10.3407 34.7852C10.3407 35.5958 11.017 36.2424 11.8519 36.2424C11.9141 36.2424 11.9743 36.2418 12.0361 36.2418H30.2035H30.4581V36.2415C33.3549 36.2203 35.697 33.9361 35.7013 31.1196H35.7003L35.7013 30.9803V26.9126H35.6991C35.6306 24.1748 33.3525 21.9693 30.5295 21.912V21.9106H20.3834Z" fill="white"/>
<path d="M47.0005 40.2852L47.0008 15.1508L47.0001 15.1511V15.1508H47.0008C46.9885 12.3422 44.6514 10.0668 41.7606 10.0444V10.044V10.0437H34.1195V10.0444C34.1118 10.044 34.104 10.0437 34.0962 10.0437C33.2617 10.0437 32.585 10.7009 32.585 11.5114C32.585 12.3218 33.2617 12.9671 34.0962 12.9671C34.1598 12.9671 34.2228 12.9671 34.2838 12.9671H36.9505H41.7244C41.7603 12.9675 41.7997 12.9713 41.8352 12.9734C42.4149 13.0016 42.9362 13.2416 43.3208 13.6149C43.7259 14.0078 43.9805 14.5476 43.9877 15.1458L43.9881 15.1479H43.9877L43.9888 15.1673V19.8055V35.6281V40.2753L43.9884 40.2785C43.9884 40.3136 43.9859 40.3481 43.9841 40.3826C43.9547 40.9453 43.6922 41.4521 43.3077 41.8253C42.9286 42.1937 42.4156 42.4316 41.8457 42.4661H36.9444H10.0557H5.28451L5.28097 42.4629C5.2449 42.4629 5.20884 42.4618 5.17321 42.46C4.59405 42.4316 4.07217 42.1919 3.68772 41.8186C3.28253 41.4257 3.0305 40.8845 3.023 40.2863L3.01947 40.2827H3.01169V35.6281V9.76283V5.12318H3.02725L3.03078 5.12001C3.03078 5.08487 3.03149 5.05008 3.03361 5.01528C3.06303 4.45294 3.30983 3.94648 3.69453 3.57323C4.09932 3.18029 4.65654 2.93533 5.27293 2.9283L5.27673 2.92478H10.0557H45.5167V2.92373C46.3332 2.90651 46.9896 2.25947 46.9896 1.46305C46.9896 0.666286 46.3332 0.0192413 45.5167 0.00167084V0.000965118H5.26091V0.00131607C2.36294 0.0217018 0.019681 2.30621 0.015438 5.12318H-0.000119585H-0.000402451V40.2852H-0.000119585H0.00765921C0.0215196 43.0825 2.34172 45.3501 5.21706 45.3891V45.3899H41.7259V45.3972C44.6275 45.3853 46.9914 43.1029 47.0008 40.2852H47.0005Z" fill="white"/>
</g>
<defs>
<clipPath id="clip0">
<rect width="47" height="59" fill="white"/>
</clipPath>
</defs>
</svg>
