<svg width="122" height="165" viewBox="0 0 122 165" fill="none" xmlns="http://www.w3.org/2000/svg">
<path d="M12.3086 143.736H6.40461V142.2H19.9886V143.736H14.0846V159H12.3086V143.736ZM39.5115 160.416C38.9995 161.04 38.3915 161.512 37.6875 161.832C36.9995 162.168 36.2475 162.336 35.4315 162.336C34.4395 162.336 33.4955 162.088 32.5995 161.592C31.7195 161.112 30.7275 160.296 29.6235 159.144C28.0075 159.096 26.5515 158.696 25.2555 157.944C23.9595 157.192 22.9435 156.176 22.2075 154.896C21.4715 153.616 21.1035 152.184 21.1035 150.6C21.1035 148.984 21.4795 147.528 22.2315 146.232C22.9995 144.936 24.0555 143.92 25.3995 143.184C26.7595 142.432 28.2715 142.056 29.9355 142.056C31.5995 142.056 33.0955 142.424 34.4235 143.16C35.7675 143.896 36.8235 144.92 37.5915 146.232C38.3595 147.528 38.7435 148.984 38.7435 150.6C38.7435 152.008 38.4475 153.304 37.8555 154.488C37.2795 155.656 36.4635 156.632 35.4075 157.416C34.3675 158.2 33.1675 158.72 31.8075 158.976C33.0395 160.272 34.2555 160.92 35.4555 160.92C36.7035 160.92 37.7675 160.408 38.6475 159.384L39.5115 160.416ZM22.8555 150.6C22.8555 151.912 23.1595 153.096 23.7675 154.152C24.3915 155.208 25.2395 156.04 26.3115 156.648C27.3995 157.256 28.6075 157.56 29.9355 157.56C31.2635 157.56 32.4635 157.256 33.5355 156.648C34.6075 156.04 35.4475 155.208 36.0555 154.152C36.6635 153.096 36.9675 151.912 36.9675 150.6C36.9675 149.288 36.6635 148.104 36.0555 147.048C35.4475 145.992 34.6075 145.16 33.5355 144.552C32.4635 143.944 31.2635 143.64 29.9355 143.64C28.6075 143.64 27.3995 143.944 26.3115 144.552C25.2395 145.16 24.3915 145.992 23.7675 147.048C23.1595 148.104 22.8555 149.288 22.8555 150.6ZM41.6158 151.752H47.9038V153.24H41.6158V151.752ZM57.2062 159.12C55.9902 159.12 54.8942 158.848 53.9182 158.304C52.9422 157.744 52.1742 156.976 51.6142 156C51.0542 155.024 50.7742 153.92 50.7742 152.688C50.7742 151.456 51.0542 150.352 51.6142 149.376C52.1742 148.4 52.9422 147.64 53.9182 147.096C54.8942 146.552 55.9902 146.28 57.2062 146.28C58.4222 146.28 59.5182 146.552 60.4942 147.096C61.4702 147.64 62.2302 148.4 62.7742 149.376C63.3342 150.352 63.6142 151.456 63.6142 152.688C63.6142 153.92 63.3342 155.024 62.7742 156C62.2302 156.976 61.4702 157.744 60.4942 158.304C59.5182 158.848 58.4222 159.12 57.2062 159.12ZM57.2062 157.608C58.1022 157.608 58.9022 157.408 59.6062 157.008C60.3262 156.592 60.8862 156.008 61.2862 155.256C61.6862 154.504 61.8862 153.648 61.8862 152.688C61.8862 151.728 61.6862 150.872 61.2862 150.12C60.8862 149.368 60.3262 148.792 59.6062 148.392C58.9022 147.976 58.1022 147.768 57.2062 147.768C56.3102 147.768 55.5022 147.976 54.7822 148.392C54.0782 148.792 53.5182 149.368 53.1022 150.12C52.7022 150.872 52.5022 151.728 52.5022 152.688C52.5022 153.648 52.7022 154.504 53.1022 155.256C53.5182 156.008 54.0782 156.592 54.7822 157.008C55.5022 157.408 56.3102 157.608 57.2062 157.608ZM75.6673 147.888H70.8913V159H69.1873V147.888H64.4113V146.376H75.6673V147.888ZM87.659 146.376V159H85.955V153.744C84.499 154.384 83.067 154.704 81.659 154.704C80.139 154.704 78.955 154.36 78.107 153.672C77.259 152.968 76.835 151.92 76.835 150.528V146.376H78.539V150.432C78.539 151.376 78.843 152.096 79.451 152.592C80.059 153.072 80.899 153.312 81.971 153.312C83.155 153.312 84.483 153 85.955 152.376V146.376H87.659ZM103.538 153.216H92.9782C93.0742 154.528 93.5782 155.592 94.4902 156.408C95.4022 157.208 96.5542 157.608 97.9462 157.608C98.7302 157.608 99.4502 157.472 100.106 157.2C100.762 156.912 101.33 156.496 101.81 155.952L102.77 157.056C102.21 157.728 101.506 158.24 100.658 158.592C99.8262 158.944 98.9062 159.12 97.8982 159.12C96.6022 159.12 95.4502 158.848 94.4422 158.304C93.4502 157.744 92.6742 156.976 92.1142 156C91.5542 155.024 91.2742 153.92 91.2742 152.688C91.2742 151.456 91.5382 150.352 92.0662 149.376C92.6102 148.4 93.3462 147.64 94.2742 147.096C95.2182 146.552 96.2742 146.28 97.4422 146.28C98.6102 146.28 99.6582 146.552 100.586 147.096C101.514 147.64 102.242 148.4 102.77 149.376C103.298 150.336 103.562 151.44 103.562 152.688L103.538 153.216ZM97.4422 147.744C96.2262 147.744 95.2022 148.136 94.3702 148.92C93.5542 149.688 93.0902 150.696 92.9782 151.944H101.93C101.818 150.696 101.346 149.688 100.514 148.92C99.6982 148.136 98.6742 147.744 97.4422 147.744ZM115.652 147.888H110.876V159H109.172V147.888H104.396V146.376H115.652V147.888Z" fill="white"/>
<g clip-path="url(#clip0)">
<path d="M97.4972 28.7791C96.5246 28.7799 95.5536 28.8384 94.5882 28.9539C91.9674 20.45 84.0948 14.6383 75.1678 14.6202C72.9456 14.6178 70.7392 14.9857 68.6393 15.7064C63.4406 4.50469 51.1203 -1.5831 39.0264 1.07353C26.9308 3.73096 18.3222 14.4152 18.3309 26.7562C18.3317 28.8891 18.5984 31.0133 19.1217 33.0797C7.5985 34.8329 -0.634586 45.124 0.222068 56.7086C1.07713 68.294 10.7337 77.2741 22.3903 77.3256H97.4972C110.95 77.3256 121.856 66.4577 121.856 53.0519C121.856 39.6461 110.95 28.7791 97.4972 28.7791ZM97.4972 73.2797H22.3903C12.3827 73.3232 4.20523 65.3296 4.05597 55.3581C3.90751 45.3866 11.8413 37.1549 21.8464 36.9009C22.4959 36.8827 23.0969 36.556 23.4637 36.0219C23.8321 35.4871 23.9202 34.8107 23.7019 34.2008C19.6726 22.7111 25.666 10.1289 37.1471 5.97462C48.6274 1.82037 61.3264 7.64075 65.6334 19.0299C65.8303 19.5584 66.2384 19.9801 66.7608 20.1953C67.284 20.4105 67.8723 20.3986 68.3852 20.1628C70.5106 19.1779 72.8249 18.6676 75.1678 18.6652C82.8912 18.6795 89.5419 24.1003 91.0846 31.6414C91.3053 32.7379 92.3771 33.4468 93.4759 33.2253C94.7994 32.961 96.1459 32.8266 97.4972 32.825C108.708 32.825 117.796 41.8819 117.796 53.0519C117.796 64.2236 108.708 73.2797 97.4972 73.2797Z" fill="white"/>
</g>
<rect y="91.9512" width="122" height="22.6341" rx="11.3171" fill="white"/>
<line y1="-1" x2="31.0795" y2="-1" transform="matrix(-0.502088 0.864816 -0.502088 -0.864816 29.7907 89.1219)" stroke="#6A249E" stroke-width="2"/>
<line y1="-1" x2="31.0795" y2="-1" transform="matrix(-0.502088 0.864816 -0.502088 -0.864816 18.4419 89.1219)" stroke="#6A249E" stroke-width="2"/>
<line y1="-1" x2="31.0795" y2="-1" transform="matrix(-0.502088 0.864816 -0.502088 -0.864816 41.1395 89.1219)" stroke="#6A249E" stroke-width="2"/>
<line y1="-1" x2="31.0795" y2="-1" transform="matrix(-0.502088 0.864816 -0.502088 -0.864816 52.4884 89.1219)" stroke="#6A249E" stroke-width="2"/>
<line y1="-1" x2="31.0795" y2="-1" transform="matrix(-0.502088 0.864816 -0.502088 -0.864816 63.8372 89.1219)" stroke="#6A249E" stroke-width="2"/>
<defs>
<clipPath id="clip0">
<rect width="122" height="77.8049" fill="white"/>
</clipPath>
</defs>
</svg>
