<svg xmlns="http://www.w3.org/2000/svg" viewBox="0 0 170.00007 48.00001">
  <defs>
    <style>
      .cls-1 {
        fill: #c09529;
      }

      .cls-2 {
        fill: #fff;
      }
    </style>
  </defs>
  <title>Asset 1</title>
  <g id="Layer_2" data-name="Layer 2">
    <g id="Слой_1" data-name="Слой 1">
      <g>
        <path class="cls-1" d="M154.71728,0a.71819.71819,0,0,0-.60583,1.101l14.0712,22.43458a.90558.90558,0,0,1,.01465.9378L155.07945,46.91827A.71816.71816,0,0,0,155.69695,48h.032a.71568.71568,0,0,0,.61749-.35453l13.51907-23.13029a.98559.98559,0,0,0-.016-1.02069L155.32311.33531A.71561.71561,0,0,0,154.71728,0Z"/>
        <path class="cls-2" d="M40.41059,3.22875V6.88884h6.41023V9.46079H40.41059v5.045h-3.205V.65681H47.67129V3.22875Zm17.35648,11.277-2.67088-3.85788H52.14834v3.85788h-3.205V.65681h5.99453a7.69627,7.69627,0,0,1,3.19515.61331,4.74816,4.74816,0,0,1,2.08731,1.74107,4.79694,4.79694,0,0,1,.732,2.6708,4.7,4.7,0,0,1-.7419,2.661,4.70184,4.70184,0,0,1-2.10692,1.71134l3.106,4.45142ZM56.956,3.89157a3.36666,3.36666,0,0,0-2.196-.62319H52.14834V8.09569h2.61158a3.329,3.329,0,0,0,2.196-.63308A2.1998,2.1998,0,0,0,57.70776,5.682,2.19379,2.19379,0,0,0,56.956,3.89157ZM73.337,11.9338v2.572H62.6139V.65681H73.07963V3.22875H65.79916V6.236h6.43V8.72877h-6.43v3.205Zm12.50144,0v2.572H75.11534V.65681H85.58107V3.22875H78.3006V6.236h6.43V8.72877h-6.43v3.205ZM87.61678.65681h6.29143a8.843,8.843,0,0,1,3.98647.86061A6.44858,6.44858,0,0,1,100.58534,3.941a6.81849,6.81849,0,0,1,.95955,3.64032,6.81754,6.81754,0,0,1-.95955,3.64023,6.44635,6.44635,0,0,1-2.69066,2.42359,8.84211,8.84211,0,0,1-3.98647.86061H87.61678Zm6.1331,11.21768a4.65481,4.65481,0,0,0,3.31393-1.15742,4.0888,4.0888,0,0,0,1.23651-3.13575,4.08935,4.08935,0,0,0-1.23651-3.13583,4.65472,4.65472,0,0,0-3.31393-1.15734H90.82181v8.58634Zm38.19428,2.63126-.01977-8.30938-4.07578,6.84534h-1.44426l-4.05568-6.66724v8.13128h-3.00715V.65681h2.65112l5.18343,8.60611L132.28026.65681h2.65128V14.50575ZM0,17.07858H3.205V30.92752H0Zm18.2862,0V30.92752H15.655L8.75037,22.51929v8.40823H5.58471V17.07858H8.06443l7.05645,8.57989V17.07858Zm5.54241,2.61158H19.397V17.07858H31.46529v2.61158H27.03364V30.92752h-3.205Zm19.47052,8.66542v2.57194H32.57605V17.07858H43.04178v2.572H35.76131v3.00724h6.43v2.49278h-6.43v3.205Zm10.60211,2.57194-2.67105-3.85788H48.28235v3.85788H45.07749V17.07858H51.072a7.69737,7.69737,0,0,1,3.19515.61331A4.75014,4.75014,0,0,1,56.35448,19.433a4.79822,4.79822,0,0,1,.73185,2.6708,4.5114,4.5114,0,0,1-2.84882,4.37234l3.10617,4.45141ZM53.09,20.31335a3.36615,3.36615,0,0,0-2.19588-.62319H48.28235v4.82731h2.61174A3.32849,3.32849,0,0,0,53.09,23.88439a2.19992,2.19992,0,0,0,.752-1.78062A2.1939,2.1939,0,0,0,53.09,20.31335Zm18.35959-3.23477V30.92752H68.81805l-6.90466-8.40823v8.40823H58.74807V17.07858h2.47938l7.05646,8.57989V17.07858ZM83.04289,27.95991H76.61306l-1.22662,2.96761H72.10233L78.275,17.07858h3.16549L87.6327,30.92752H84.26951Zm-1.009-2.43347-2.196-5.30214-2.196,5.30214Zm16.1054-8.44786h3.2052V30.92752h-3.2052Zm33.90336,0V30.92752H129.4115l-6.90466-8.40823v8.40823h-3.16532V17.07858h2.47938l7.05646,8.57989V17.07858Zm11.70458,10.88133h-6.42982l-1.22679,2.96761h-3.28428l6.17281-13.84894h3.16532l6.19258,13.84894H144.9737Zm-1.009-2.43347-2.19622-5.30214-2.19589,5.30214Zm6.36247-8.44786h3.2052V28.316h6.9442v2.61149h-10.1494Zm-38.92818-15.381a5.88369,5.88369,0,1,1-5.8836,5.88369,5.89037,5.89037,0,0,1,5.8836-5.88369m0-1.69757a7.58127,7.58127,0,1,0,7.5813,7.58126A7.58122,7.58122,0,0,0,110.17259,0Zm0,18.1163A5.88369,5.88369,0,1,1,104.289,24a5.89036,5.89036,0,0,1,5.8836-5.88369m0-1.69757A7.58127,7.58127,0,1,0,117.75389,24a7.58122,7.58122,0,0,0-7.5813-7.58126Zm0,18.1163a5.88369,5.88369,0,1,1-5.8836,5.88369,5.89036,5.89036,0,0,1,5.8836-5.88369m0-1.69757a7.58127,7.58127,0,1,0,7.5813,7.58126,7.58122,7.58122,0,0,0-7.5813-7.58126ZM84.63041,40.20113h2.92807v5.61872a8.36092,8.36092,0,0,1-2.61141,1.30571,10.14339,10.14339,0,0,1-2.98738.45506,8.0948,8.0948,0,0,1-3.87774-.92,6.84708,6.84708,0,0,1-2.70054-2.55209,7.43946,7.43946,0,0,1,0-7.37949,6.81368,6.81368,0,0,1,2.72032-2.55218,8.25281,8.25281,0,0,1,3.91727-.92,8.57633,8.57633,0,0,1,3.30388.61331,6.54894,6.54894,0,0,1,2.49278,1.78061L85.75817,37.55a4.75986,4.75986,0,0,0-3.581-1.56288,4.89,4.89,0,0,0-2.35439.55391,3.973,3.973,0,0,0-1.60243,1.563,4.91668,4.91668,0,0,0,0,4.60967,4.05506,4.05506,0,0,0,1.59271,1.57286,4.71941,4.71941,0,0,0,2.32457.56388,5.19561,5.19561,0,0,0,2.49278-.59354Zm4.76356-20.511H84.96232V17.07858H97.03081v2.61158H92.59916V30.92752H89.394Zm8.82375,27.653L95.547,43.48532H92.59916V47.3432H89.394V33.49426h5.9947a7.69729,7.69729,0,0,1,3.19514.61331,4.74768,4.74768,0,0,1,2.08715,1.74108,4.797,4.797,0,0,1,.73219,2.6708,4.51124,4.51124,0,0,1-2.849,4.37233l3.106,4.45142ZM97.40679,36.729a3.36717,3.36717,0,0,0-2.19622-.6232H92.59916v4.82732h2.61141a3.3295,3.3295,0,0,0,2.19622-.63308,2.49661,2.49661,0,0,0,0-3.571Zm23.58676,9.20953a6.32082,6.32082,0,0,1-1.652-4.68892V33.49426h3.205v7.63668q0,3.71982,3.0864,3.71948a2.89281,2.89281,0,0,0,2.29491-.90024,4.19655,4.19655,0,0,0,.7915-2.81924V33.49426h3.16532v7.75538a6.55036,6.55036,0,0,1-10.89113,4.68892Zm21.84526-11.831a4.7477,4.7477,0,0,1,2.08714,1.74108,5.21934,5.21934,0,0,1,0,5.3318,4.66087,4.66087,0,0,1-2.08714,1.741,7.80062,7.80062,0,0,1-3.19515.60342h-2.78951V47.3432H133.649V33.49426h5.9947A7.69737,7.69737,0,0,1,142.83881,34.10757Zm-1.177,6.18261a2.17117,2.17117,0,0,0,.75162-1.77073,2.19417,2.19417,0,0,0-.75162-1.79042,3.36717,3.36717,0,0,0-2.19622-.6232h-2.61141v4.80755h2.61141A3.36763,3.36763,0,0,0,141.66178,40.29018ZM139.073,3.17117l-.512-.72013a1.58163,1.58163,0,0,1-.17917.00967h-.60157v.71046h-.23685v-2.24h.83842a1.01166,1.01166,0,0,1,.672.20482.697.697,0,0,1,.24315.56315.72776.72776,0,0,1-.1328.44313.73588.73588,0,0,1-.37924.26094l.54727.768Zm-.18884-1.0593a.50839.50839,0,0,0,.17606-.41273.51114.51114,0,0,0-.17606-.41757.77977.77977,0,0,0-.50876-.14558h-.59518V2.25918h.59518A.773.773,0,0,0,138.88412,2.11187Zm-.54938,1.99046a2.05116,2.05116,0,1,1,2.05116-2.05116A2.05343,2.05343,0,0,1,138.33474,4.10233Zm0-3.91434a1.86319,1.86319,0,1,0,1.86318,1.86318A1.86531,1.86531,0,0,0,138.33474.188Z"/>
      </g>
    </g>
  </g>
</svg>
