<svg width="40" height="40" fill="none" xmlns="http://www.w3.org/2000/svg"><g clip-path="url(#a)" fill="#fff"><path d="M17.348 19.305h-4.054c-.03 0-.063 0-.092-.005a1.931 1.931 0 0 1-1.83-1.915V13.265c.025-.494.236-.942.564-1.272.345-.347.82-.562 1.341-.567h7.23a1.28 1.28 0 0 0 1.287-1.28 1.29 1.29 0 0 0-1.287-1.294h-7.23v-.008c-2.473.012-4.474 2.024-4.479 4.514v4.046c.021 2.476 2.023 4.48 4.492 4.484h12.6c.03 0 .063 0 .093.005a1.931 1.931 0 0 1 1.83 1.915v3.711a1.942 1.942 0 0 1-.564 1.272c-.345.347-.82.562-1.342.566H10.085a1.29 1.29 0 0 0 0 2.579H25.92c2.464-.021 4.458-2.033 4.462-4.515v-3.707c-.06-2.413-1.998-4.354-4.4-4.404h-8.634v-.004Z"/><path d="M40 35.498v-22.15c-.013-2.472-1.998-4.48-4.458-4.5h-6.523c-.71 0-1.287.578-1.287 1.292 0 .715.576 1.281 1.287 1.281h6.494c.029 0 .063 0 .092.005a1.946 1.946 0 0 1 1.834 1.915v22.233a1.956 1.956 0 0 1-.576 1.273 1.942 1.942 0 0 1-1.245.566H4.496c-.03 0-.063 0-.093-.004a1.931 1.931 0 0 1-1.83-1.915h-.008V4.514h.017v-.097c.026-.494.236-.942.564-1.272.345-.347.82-.562 1.341-.567H38.738a1.288 1.288 0 0 0 1.254-1.289c0-.701-.56-1.272-1.254-1.289H4.48C2.01.017.017 2.033.013 4.514H0v30.984h.008c.013 2.465 1.985 4.464 4.433 4.498h31.072v.008A4.516 4.516 0 0 0 40 35.498Z"/></g><defs><clipPath id="a"><path fill="#fff" d="M0 0h40v40H0z"/></clipPath></defs></svg>