<svg width="57" height="60" viewBox="0 0 57 60" fill="none" xmlns="http://www.w3.org/2000/svg">
<path d="M8.09063 59.6C5.15729 54.7333 3.19063 49.6333 2.19063 44.3C1.19063 38.9 1.09063 33.5667 1.89063 28.3C2.69063 23.0333 4.39063 18 6.99063 13.2C9.65729 8.4 13.1906 4.1 17.5906 0.299994L23.6906 3.99999C24.7573 4.73332 25.224 5.63333 25.0906 6.7C24.9573 7.69999 24.5906 8.53333 23.9906 9.19999C22.3906 11.2 20.9573 13.7 19.6906 16.7C18.4906 19.6333 17.6906 22.8333 17.2906 26.3C16.8906 29.7667 17.024 33.3667 17.6906 37.1C18.3573 40.8333 19.7573 44.5 21.8906 48.1C22.824 49.6333 23.0906 51 22.6906 52.2C22.2906 53.4 21.424 54.2667 20.0906 54.8L8.09063 59.6ZM39.1906 59.6C36.2573 54.7333 34.2906 49.6333 33.2906 44.3C32.2906 38.9 32.1906 33.5667 32.9906 28.3C33.7906 23.0333 35.4906 18 38.0906 13.2C40.7573 8.4 44.2906 4.1 48.6906 0.299994L54.7906 3.99999C55.8573 4.73332 56.324 5.63333 56.1906 6.7C56.0573 7.69999 55.6906 8.53333 55.0906 9.19999C53.4906 11.2 52.0573 13.7 50.7906 16.7C49.5906 19.6333 48.7906 22.8333 48.3906 26.3C47.9906 29.7667 48.124 33.3667 48.7906 37.1C49.4573 40.8333 50.8573 44.5 52.9906 48.1C53.924 49.6333 54.1906 51 53.7906 52.2C53.3906 53.4 52.524 54.2667 51.1906 54.8L39.1906 59.6Z" fill="#E5E5E5"/>
</svg>
