<svg width="215" height="72" viewBox="0 0 215 72" fill="none" xmlns="http://www.w3.org/2000/svg">
<g clip-path="url(#clip0_202_4024)">
<path d="M59.8504 59.4712C59.2464 59.2464 58.6279 59.0626 57.9992 58.9208C57.3571 58.7624 56.8484 58.6123 56.4648 58.4789C56.1088 58.3608 55.7839 58.1641 55.5142 57.9035C55.3874 57.7689 55.2889 57.6103 55.2245 57.437C55.16 57.2637 55.1309 57.0792 55.1389 56.8945C55.1369 56.6299 55.1979 56.3687 55.3168 56.1324C55.4357 55.896 55.6091 55.6913 55.8227 55.5353C56.4353 55.1441 57.1573 54.96 57.8824 55.0099C58.3765 55.0143 58.8677 55.0872 59.3417 55.2267C59.8354 55.37 60.3048 55.5864 60.7343 55.8688L61.1095 55.0349C60.6536 54.7328 60.1526 54.5048 59.6252 54.3595C59.058 54.1998 58.4717 54.1184 57.8824 54.1177C57.1517 54.0931 56.4241 54.2239 55.7477 54.5012C55.2281 54.7137 54.7819 55.073 54.4635 55.5353C54.1907 55.9634 54.0487 56.4619 54.0549 56.9695C54.0221 57.5219 54.1976 58.0664 54.5469 58.4955C54.873 58.8674 55.2853 59.1538 55.7477 59.3294C56.3578 59.5597 56.9816 59.7519 57.6156 59.9048C58.134 60.0233 58.6461 60.168 59.1499 60.3384C59.4962 60.4616 59.8119 60.6578 60.0755 60.9138C60.2034 61.0442 60.3029 61.1997 60.3675 61.3705C60.4321 61.5414 60.4604 61.7238 60.4508 61.9061C60.4543 62.1672 60.3928 62.425 60.272 62.6564C60.1512 62.8878 59.9748 63.0856 59.7587 63.232C59.1292 63.6192 58.3945 63.8 57.6573 63.749C56.9993 63.7493 56.3467 63.6306 55.731 63.3988C55.1718 63.2057 54.6602 62.8959 54.23 62.4899L53.7964 63.3237C54.2674 63.7781 54.8387 64.1152 55.4642 64.3077C56.1782 64.5516 56.9277 64.6756 57.6823 64.6746C58.4201 64.6963 59.1548 64.5687 59.842 64.2994C60.3652 64.0895 60.8168 63.7334 61.1429 63.2737C61.4182 62.8462 61.5631 62.3479 61.5598 61.8394C61.59 61.2939 61.4178 60.7565 61.0762 60.3301C60.7434 59.9485 60.3226 59.6537 59.8504 59.4712Z" fill="white"/>
<path d="M67.9894 59.7462H73.368V58.8122H67.9894V55.1181H74.0184V54.1675H66.8887V64.566H74.2435V63.6071H67.9894V59.7462Z" fill="white"/>
<path d="M87.318 59.7879C87.7454 59.1883 87.9624 58.4641 87.9351 57.7282C87.9592 57.2361 87.8702 56.745 87.6751 56.2926C87.4799 55.8402 87.1838 55.4384 86.8094 55.1182C85.9167 54.4389 84.8104 54.1017 83.6906 54.1675H79.7964V64.5577H80.8971V61.2222H83.6906C83.9741 61.2222 84.2577 61.2222 84.5245 61.2222L86.9011 64.5577H88.1019L85.6002 60.997C86.286 60.7853 86.8873 60.3621 87.318 59.7879ZM83.6573 60.3299H80.8971V55.1182H83.6573C84.4987 55.0601 85.3339 55.2991 86.0172 55.7936C86.2759 56.0433 86.4817 56.3425 86.6223 56.6735C86.7629 57.0044 86.8353 57.3603 86.8353 57.7199C86.8353 58.0795 86.7629 58.4353 86.6223 58.7663C86.4817 59.0972 86.2759 59.3965 86.0172 59.6462C85.335 60.1436 84.4997 60.3856 83.6573 60.3299Z" fill="white"/>
<path d="M94.6066 54.1675H93.5059V64.566H94.6066V54.1675Z" fill="white"/>
<path d="M108.29 54.7597C107.436 54.2951 106.477 54.0595 105.505 54.0759C104.53 54.0644 103.568 54.3026 102.711 54.768C101.896 55.2055 101.217 55.8608 100.752 56.6609C100.287 57.4856 100.043 58.4161 100.043 59.3627C100.043 60.3093 100.287 61.2398 100.752 62.0645C101.217 62.8646 101.896 63.5199 102.711 63.9574C103.572 64.4095 104.529 64.6458 105.501 64.6458C106.473 64.6458 107.43 64.4095 108.29 63.9574C109.106 63.5199 109.784 62.8646 110.25 62.0645C110.714 61.2368 110.958 60.3035 110.958 59.3544C110.958 58.4052 110.714 57.4719 110.25 56.6442C109.783 55.8472 109.105 55.1949 108.29 54.7597ZM109.299 61.5725C108.926 62.2167 108.388 62.7494 107.74 63.1152C107.055 63.4899 106.285 63.6823 105.505 63.6739C104.725 63.6801 103.956 63.4878 103.27 63.1152C102.615 62.7557 102.072 62.2217 101.702 61.5725C101.316 60.9007 101.118 60.1375 101.127 59.3627C101.116 58.5904 101.315 57.8295 101.702 57.1612C102.072 56.5095 102.614 55.9727 103.27 55.6102C103.956 55.2401 104.725 55.0507 105.505 55.0599C106.285 55.0489 107.054 55.2384 107.74 55.6102C108.389 55.9784 108.927 56.514 109.299 57.1612C109.677 57.8325 109.87 58.5923 109.858 59.3627C109.869 60.1356 109.676 60.8979 109.299 61.5725Z" fill="white"/>
<path d="M123.776 60.0797C123.848 61.0532 123.55 62.018 122.942 62.7815C122.287 63.3573 121.445 63.6749 120.574 63.6749C119.702 63.6749 118.86 63.3573 118.205 62.7815C117.601 62.016 117.304 61.0527 117.372 60.0797V54.1675H116.304V60.1214C116.265 60.7246 116.345 61.3297 116.539 61.902C116.734 62.4743 117.039 63.0027 117.438 63.457C118.315 64.2047 119.43 64.6154 120.582 64.6154C121.734 64.6154 122.849 64.2047 123.726 63.457C124.526 62.5368 124.93 61.3381 124.851 60.1214V54.1675H123.776V60.0797Z" fill="white"/>
<path d="M136.187 59.4711C135.585 59.2473 134.97 59.0635 134.344 58.9207C133.702 58.7623 133.185 58.6122 132.801 58.4788C132.446 58.3579 132.122 58.1616 131.851 57.9034C131.724 57.7688 131.625 57.6102 131.561 57.4369C131.496 57.2636 131.467 57.0791 131.475 56.8944C131.474 56.6291 131.537 56.3674 131.657 56.131C131.777 55.8946 131.952 55.6903 132.167 55.5352C132.776 55.1419 133.496 54.9575 134.219 55.0098C134.713 55.0135 135.204 55.0865 135.678 55.2266C136.172 55.3699 136.641 55.5863 137.071 55.8687L137.446 55.0348C136.992 54.7342 136.494 54.5063 135.97 54.3594C135.4 54.1998 134.811 54.1184 134.219 54.1176C133.488 54.0941 132.761 54.2248 132.084 54.5012C131.566 54.7115 131.121 55.0715 130.808 55.5352C130.533 55.9626 130.388 56.461 130.391 56.9694C130.361 57.5229 130.539 58.0675 130.892 58.4955C131.213 58.8688 131.623 59.1555 132.084 59.3293C132.695 59.5572 133.319 59.7494 133.952 59.9047C134.471 60.022 134.983 60.1668 135.486 60.3383C135.833 60.4598 136.149 60.6562 136.412 60.9137C136.541 61.0437 136.642 61.1989 136.708 61.3697C136.774 61.5405 136.804 61.7231 136.796 61.906C136.799 62.168 136.736 62.4265 136.614 62.6582C136.492 62.8898 136.313 63.087 136.095 63.2319C135.468 63.618 134.736 63.7987 134.002 63.7489C133.341 63.7498 132.686 63.6311 132.067 63.3987C131.508 63.2056 130.997 62.8958 130.566 62.4898L130.141 63.3237C130.61 63.7805 131.182 64.118 131.809 64.3076C132.526 64.5522 133.278 64.6762 134.035 64.6745C134.77 64.6956 135.502 64.5679 136.187 64.2993C136.71 64.0894 137.161 63.7333 137.488 63.2736C137.769 62.8485 137.917 62.3491 137.913 61.8393C137.941 61.2927 137.766 60.7552 137.421 60.33C137.087 59.9455 136.663 59.6503 136.187 59.4711Z" fill="white"/>
<path d="M144.334 54.1675H143.242V64.566H150.163V63.6071H144.334V54.1675Z" fill="white"/>
<path d="M156.917 60.0047L153.356 54.1675H152.18L156.341 60.9636V64.566H157.425V60.9636L161.578 54.1675H160.486L156.917 60.0047Z" fill="white"/>
<path d="M26.9871 17.5684L14.7457 38.7241L2.51257 17.5684H0.828125V44.9365H2.77941V21.5961L14.237 41.3008H15.2126L26.6702 21.521L26.7119 44.9365H28.6632L28.6298 17.5684H26.9871Z" fill="#018177"/>
<path d="M40.1981 6.36926H38.2051V33.7374H40.1981V6.36926Z" fill="#018177"/>
<path d="M67.4907 43.1353H51.7386V17.5684H49.7456V44.9365H67.4907V43.1353Z" fill="#018177"/>
<path d="M63.2611 6.36926H61.2598V33.7374H79.0132V31.9445H63.2611V6.36926Z" fill="#018177"/>
<path d="M104.78 38.1819H87.8851V26.9662H102.47V25.2067H87.8851V14.4079H104.188V12.6151H85.8921V39.9831H104.78V38.1819Z" fill="#018177"/>
<path d="M133.775 44.9365V17.5684H131.782V41.3425L113.169 17.5684H111.493V44.9365H113.486V21.1625L132.14 44.9365H133.775Z" fill="#018177"/>
<path d="M145.308 6.36926H143.315V33.7374H145.308V6.36926Z" fill="#018177"/>
<path d="M174.793 28.2921C174.793 31.6276 174.023 34.1293 172.483 35.797C170.943 37.4648 168.719 38.2987 165.812 38.2987C162.893 38.2987 160.669 37.4648 159.141 35.797C157.612 34.1293 156.845 31.6276 156.839 28.2921V12.6151H154.846V28.3671C154.846 32.2252 155.802 35.1577 157.715 37.1646C159.627 39.1715 162.318 40.1749 165.787 40.1749C169.256 40.1749 171.955 39.1715 173.884 37.1646C175.813 35.1577 176.777 32.2252 176.777 28.3671V12.6151H174.784L174.793 28.2921Z" fill="#018177"/>
<path d="M214.131 17.5684H212.488L200.247 38.7241L188.014 17.5684H186.329V44.9365H188.28V21.5961L199.738 41.3008H200.722L212.171 21.521L212.213 44.9365H214.164L214.131 17.5684Z" fill="#018177"/>
</g>
<defs>
<clipPath id="clip0_202_4024">
<rect width="214" height="70.2359" fill="white" transform="translate(0.828125 0.88208)"/>
</clipPath>
</defs>
</svg>
