<svg width="664" height="59" viewBox="0 0 664 59" fill="none" xmlns="http://www.w3.org/2000/svg">
<path d="M0.462891 58.0751V1.67512H20.8629L42.3829 55.4351H45.0229L43.1829 48.7151V1.67512H53.4229V58.0751H33.0229L11.5829 4.31512H8.94289L10.7829 11.0351V58.0751H0.462891Z" fill="url(#paint0_diamond_262_4275)"/>
<path d="M62.5723 58.0751V1.67512H100.732V10.6351H72.8923V25.3551H96.7323V34.3151H72.8923V49.1151H100.732V58.0751H62.5723Z" fill="url(#paint1_diamond_262_4275)"/>
<path d="M106.325 1.67512H116.245L126.245 55.4351H128.965L137.685 1.67512H159.445L168.165 55.4351H170.885L180.885 1.67512H190.805L180.165 58.0751H158.885L149.925 4.31512H147.205L138.245 58.0751H116.965L106.325 1.67512Z" fill="url(#paint2_diamond_262_4275)"/>
<path d="M222.104 58.0751V1.67512H242.504L253.864 55.4351H256.504L267.863 1.67512H288.264V58.0751H277.944V11.0351L279.863 4.31512H277.143L265.303 58.0751H245.144L233.224 4.31512H230.584L232.424 11.0351V58.0751H222.104Z" fill="url(#paint3_diamond_262_4275)"/>
<path d="M297.338 58.0751V1.67512H335.498V10.6351H307.658V25.3551H331.498V34.3151H307.658V49.1151H335.498V58.0751H297.338Z" fill="url(#paint4_diamond_262_4275)"/>
<path d="M343.51 58.0751V1.67512H381.67V10.6351H353.83V25.3551H377.67V34.3151H353.83V49.1151H381.67V58.0751H343.51Z" fill="url(#paint5_diamond_262_4275)"/>
<path d="M436.143 1.67512V10.6351H417.343V58.0751H407.023V10.6351H388.063V1.67512H436.143Z" fill="url(#paint6_diamond_262_4275)"/>
<path d="M479.173 10.6351H466.453V49.1151H479.173V58.0751H443.413V49.1151H456.133V10.6351H443.413V1.67512H479.173V10.6351Z" fill="url(#paint7_diamond_262_4275)"/>
<path d="M487.416 58.0751V1.67512H507.816L529.336 55.4351H531.976L530.136 48.7151V1.67512H540.376V58.0751H519.976L498.536 4.31512H495.896L497.736 11.0351V58.0751H487.416Z" fill="url(#paint8_diamond_262_4275)"/>
<path d="M547.866 29.8351C547.866 21.3551 550.426 14.4218 555.546 9.03512C560.719 3.59512 567.386 0.875122 575.546 0.875122C582.533 0.875122 588.319 2.82179 592.906 6.71512C597.546 10.5551 600.293 15.5951 601.146 21.8351H590.826C590.186 17.8885 588.639 14.9018 586.186 12.8751C583.733 10.8485 580.186 9.83512 575.546 9.83512C569.946 9.83512 565.653 11.5685 562.666 15.0351C559.679 18.4485 558.186 23.3818 558.186 29.8351C558.186 43.2218 563.386 49.9151 573.786 49.9151C578.373 49.9151 581.839 48.6885 584.186 46.2351C586.586 43.7285 587.759 39.9951 587.706 35.0351H572.186V27.1951H600.986C604.986 27.1951 606.986 29.1418 606.986 33.0351V58.0751H596.666V37.9951L598.586 29.8351H595.866C595.813 39.2218 593.919 46.4218 590.186 51.4351C586.506 56.3951 580.933 58.8751 573.466 58.8751C565.306 58.8751 558.986 56.2351 554.506 50.9551C550.079 45.6218 547.866 38.5818 547.866 29.8351Z" fill="url(#paint9_diamond_262_4275)"/>
<path d="M663.301 43.0351C663.301 53.5951 655.568 58.8751 640.101 58.8751C630.448 58.8751 623.541 56.9818 619.381 53.1951C615.221 49.4085 613.141 43.8618 613.141 36.5551H623.461C623.461 41.6218 624.768 45.1151 627.381 47.0351C630.048 48.9551 634.368 49.9151 640.341 49.9151C644.714 49.9151 647.914 49.3818 649.941 48.3151C651.968 47.2485 652.981 45.5685 652.981 43.2751C652.981 42.6351 652.901 42.0485 652.741 41.5151C652.581 40.9285 652.288 40.3951 651.861 39.9151C651.434 39.4351 651.008 39.0085 650.581 38.6351C650.208 38.2085 649.621 37.8085 648.821 37.4351C648.021 37.0085 647.354 36.6618 646.821 36.3951C646.288 36.1285 645.488 35.8085 644.421 35.4351C643.354 35.0618 642.528 34.7951 641.941 34.6351C641.354 34.4218 640.421 34.1285 639.141 33.7551C637.861 33.3285 636.928 33.0351 636.341 32.8751C633.941 32.0751 632.074 31.4351 630.741 30.9551C629.408 30.4751 627.781 29.8351 625.861 29.0351C623.994 28.2351 622.554 27.4618 621.541 26.7151C620.581 25.9151 619.568 24.9551 618.501 23.8351C617.488 22.7151 616.768 21.4618 616.341 20.0751C615.914 18.6351 615.701 17.0618 615.701 15.3551C615.701 10.7151 617.488 7.14179 621.061 4.63512C624.634 2.12846 629.941 0.875122 636.981 0.875122C644.981 0.875122 650.981 2.76845 654.981 6.55512C658.981 10.2885 660.981 14.9818 660.981 20.6351H650.661C650.661 13.4351 646.101 9.83512 636.981 9.83512C629.674 9.83512 626.021 11.7551 626.021 15.5951C626.021 17.4618 626.821 18.9285 628.421 19.9951C630.021 21.0618 633.194 22.3685 637.941 23.9151C645.194 26.3151 649.914 28.0485 652.101 29.1151C659.514 32.6885 663.248 37.3285 663.301 43.0351Z" fill="url(#paint10_diamond_262_4275)"/>
<defs>
<radialGradient id="paint0_diamond_262_4275" cx="0" cy="0" r="1" gradientUnits="userSpaceOnUse" gradientTransform="translate(595.879 2.8022) rotate(168.009) scale(269.887 135.394)">
<stop stop-color="#8DC3C3"/>
<stop offset="0.103079" stop-color="#9EEBE8"/>
<stop offset="0.521535" stop-color="#020508"/>
<stop offset="0.745739" stop-color="#43968C"/>
<stop offset="1" stop-color="#133237"/>
</radialGradient>
<radialGradient id="paint1_diamond_262_4275" cx="0" cy="0" r="1" gradientUnits="userSpaceOnUse" gradientTransform="translate(595.879 2.8022) rotate(168.009) scale(269.887 135.394)">
<stop stop-color="#8DC3C3"/>
<stop offset="0.103079" stop-color="#9EEBE8"/>
<stop offset="0.521535" stop-color="#020508"/>
<stop offset="0.745739" stop-color="#43968C"/>
<stop offset="1" stop-color="#133237"/>
</radialGradient>
<radialGradient id="paint2_diamond_262_4275" cx="0" cy="0" r="1" gradientUnits="userSpaceOnUse" gradientTransform="translate(595.879 2.8022) rotate(168.009) scale(269.887 135.394)">
<stop stop-color="#8DC3C3"/>
<stop offset="0.103079" stop-color="#9EEBE8"/>
<stop offset="0.521535" stop-color="#020508"/>
<stop offset="0.745739" stop-color="#43968C"/>
<stop offset="1" stop-color="#133237"/>
</radialGradient>
<radialGradient id="paint3_diamond_262_4275" cx="0" cy="0" r="1" gradientUnits="userSpaceOnUse" gradientTransform="translate(595.879 2.8022) rotate(168.009) scale(269.887 135.394)">
<stop stop-color="#8DC3C3"/>
<stop offset="0.103079" stop-color="#9EEBE8"/>
<stop offset="0.521535" stop-color="#020508"/>
<stop offset="0.745739" stop-color="#43968C"/>
<stop offset="1" stop-color="#133237"/>
</radialGradient>
<radialGradient id="paint4_diamond_262_4275" cx="0" cy="0" r="1" gradientUnits="userSpaceOnUse" gradientTransform="translate(595.879 2.8022) rotate(168.009) scale(269.887 135.394)">
<stop stop-color="#8DC3C3"/>
<stop offset="0.103079" stop-color="#9EEBE8"/>
<stop offset="0.521535" stop-color="#020508"/>
<stop offset="0.745739" stop-color="#43968C"/>
<stop offset="1" stop-color="#133237"/>
</radialGradient>
<radialGradient id="paint5_diamond_262_4275" cx="0" cy="0" r="1" gradientUnits="userSpaceOnUse" gradientTransform="translate(595.879 2.8022) rotate(168.009) scale(269.887 135.394)">
<stop stop-color="#8DC3C3"/>
<stop offset="0.103079" stop-color="#9EEBE8"/>
<stop offset="0.521535" stop-color="#020508"/>
<stop offset="0.745739" stop-color="#43968C"/>
<stop offset="1" stop-color="#133237"/>
</radialGradient>
<radialGradient id="paint6_diamond_262_4275" cx="0" cy="0" r="1" gradientUnits="userSpaceOnUse" gradientTransform="translate(595.879 2.8022) rotate(168.009) scale(269.887 135.394)">
<stop stop-color="#8DC3C3"/>
<stop offset="0.103079" stop-color="#9EEBE8"/>
<stop offset="0.521535" stop-color="#020508"/>
<stop offset="0.745739" stop-color="#43968C"/>
<stop offset="1" stop-color="#133237"/>
</radialGradient>
<radialGradient id="paint7_diamond_262_4275" cx="0" cy="0" r="1" gradientUnits="userSpaceOnUse" gradientTransform="translate(595.879 2.8022) rotate(168.009) scale(269.887 135.394)">
<stop stop-color="#8DC3C3"/>
<stop offset="0.103079" stop-color="#9EEBE8"/>
<stop offset="0.521535" stop-color="#020508"/>
<stop offset="0.745739" stop-color="#43968C"/>
<stop offset="1" stop-color="#133237"/>
</radialGradient>
<radialGradient id="paint8_diamond_262_4275" cx="0" cy="0" r="1" gradientUnits="userSpaceOnUse" gradientTransform="translate(595.879 2.8022) rotate(168.009) scale(269.887 135.394)">
<stop stop-color="#8DC3C3"/>
<stop offset="0.103079" stop-color="#9EEBE8"/>
<stop offset="0.521535" stop-color="#020508"/>
<stop offset="0.745739" stop-color="#43968C"/>
<stop offset="1" stop-color="#133237"/>
</radialGradient>
<radialGradient id="paint9_diamond_262_4275" cx="0" cy="0" r="1" gradientUnits="userSpaceOnUse" gradientTransform="translate(595.879 2.8022) rotate(168.009) scale(269.887 135.394)">
<stop stop-color="#8DC3C3"/>
<stop offset="0.103079" stop-color="#9EEBE8"/>
<stop offset="0.521535" stop-color="#020508"/>
<stop offset="0.745739" stop-color="#43968C"/>
<stop offset="1" stop-color="#133237"/>
</radialGradient>
<radialGradient id="paint10_diamond_262_4275" cx="0" cy="0" r="1" gradientUnits="userSpaceOnUse" gradientTransform="translate(595.879 2.8022) rotate(168.009) scale(269.887 135.394)">
<stop stop-color="#8DC3C3"/>
<stop offset="0.103079" stop-color="#9EEBE8"/>
<stop offset="0.521535" stop-color="#020508"/>
<stop offset="0.745739" stop-color="#43968C"/>
<stop offset="1" stop-color="#133237"/>
</radialGradient>
</defs>
</svg>
