<svg width="414" height="275" viewBox="0 0 414 275" fill="none" xmlns="http://www.w3.org/2000/svg">
<g clip-path="url(#clip0)">
<path d="M425 230.22C425 243.011 421.343 254.925 415.075 265H15.5396C6.31088 249.406 1 231.14 1 211.647C1 161.536 36.0867 119.703 82.8834 109.585C82.7963 108.446 82.7528 107.307 82.7528 106.168C82.7528 83.1712 101.254 64.5547 124.108 64.5547C132.684 64.5547 140.65 67.1829 147.223 71.6508C172.777 43.0033 209.866 25 251.177 25C328.316 25 390.871 87.9458 390.871 165.566C390.871 167.931 390.828 170.253 390.697 172.574C411.113 183.613 425 205.296 425 230.22Z" fill="#56B1DA"/>
<path d="M95.4225 183.786V125.983V100.804" stroke="#3D7E9C" stroke-width="5" stroke-miterlimit="10"/>
<path d="M95.292 133.296C95.292 133.296 98.6415 119.853 111.996 118.189" stroke="#3D7E9C" stroke-width="5" stroke-miterlimit="10"/>
<path d="M95.2921 143.412C95.2921 143.412 91.2465 131.326 80.5891 128.611" stroke="#3D7E9C" stroke-width="5" stroke-miterlimit="10"/>
<path d="M9.858 209.753C-2.061 209.753 -12.066 217.767 -15.198 228.758H34.914C31.782 217.811 21.777 209.753 9.858 209.753Z" fill="#458FB0"/>
<path d="M78.1965 209.753C66.2775 209.753 56.2725 217.767 53.1405 228.758H103.253C100.121 217.811 90.1155 209.753 78.1965 209.753Z" fill="#458FB0"/>
<path d="M45.6585 201.608C28.65 201.608 14.3385 213.081 9.9015 228.758H81.459C76.9785 213.081 62.6235 201.608 45.6585 201.608Z" fill="#458FB0"/>
<path d="M13.4685 51.8472C-4.88847 51.8472 -20.3745 64.2397 -25.1595 81.1425H52.0965C47.268 64.2397 31.8255 51.8472 13.4685 51.8472Z" fill="white"/>
<path d="M118.826 51.8472C100.469 51.8472 84.9825 64.2397 80.1975 81.1425H157.454C152.669 64.2397 137.183 51.8472 118.826 51.8472Z" fill="white"/>
<path d="M68.6265 39.3232C42.396 39.3232 20.298 57.0143 13.4685 81.1863H123.828C116.955 57.0143 94.857 39.3232 68.6265 39.3232Z" fill="white"/>
<path d="M1.81051 75.4062C-7.88999 75.4062 -16.0245 81.9309 -18.591 90.8641H22.1685C19.6455 81.9309 11.511 75.4062 1.81051 75.4062Z" fill="#3D7E9C"/>
<path d="M57.4035 75.4062C47.703 75.4062 39.5685 81.9309 37.002 90.8641H77.805C75.282 81.9309 67.104 75.4062 57.4035 75.4062Z" fill="#3D7E9C"/>
<path d="M30.912 68.7939C17.079 68.7939 5.42102 78.1212 1.81052 90.9078H60.0135C56.403 78.1212 44.745 68.7939 30.912 68.7939Z" fill="#3D7E9C"/>
<path d="M328.539 244.435H85.461C80.9805 244.435 77.3265 240.756 77.3265 236.246C77.3265 231.736 80.9805 228.057 85.461 228.057H328.495C332.976 228.057 336.63 231.736 336.63 236.246C336.673 240.8 333.019 244.435 328.539 244.435Z" fill="#458FB0"/>
<path d="M394.92 188.034C387.394 188.034 381.087 193.113 379.129 200.032H410.754C408.753 193.113 402.402 188.034 394.92 188.034Z" fill="#458FB0"/>
<path d="M417.496 182.91C406.752 182.91 397.704 190.135 394.92 200.032H440.073C437.289 190.135 428.241 182.91 417.496 182.91Z" fill="#458FB0"/>
<path d="M113.78 229.327H78.8055L73.0201 174.896H119.565L113.78 229.327Z" fill="#5BE4E8"/>
<path d="M271.38 234.407H142.62C138.575 234.407 135.312 231.123 135.312 227.05V51.1028C135.312 47.0303 138.575 43.7461 142.62 43.7461H271.38C275.426 43.7461 278.688 47.0303 278.688 51.1028V227.05C278.732 231.123 275.426 234.407 271.38 234.407Z" fill="#2B596E"/>
<path d="M269.298 224.823L269.298 53.3857L144.714 53.3857L144.714 224.823L269.298 224.823Z" fill="white"/>
<path d="M236.972 40.2868H216.222C214.526 40.2868 213.133 38.8856 213.133 37.1778C213.133 36.6523 213.264 36.1268 213.525 35.6451C214.308 34.2438 214.656 32.6236 214.395 30.872C213.917 27.5002 211.176 24.829 207.827 24.4787C203.303 23.997 199.475 27.544 199.475 31.9668C199.475 33.2805 199.823 34.5504 200.432 35.6451C200.693 36.1268 200.867 36.6523 200.867 37.1778C200.867 38.8856 199.475 40.2868 197.778 40.2868H177.029C175.724 40.2868 174.68 41.3378 174.68 42.6515V56.6204H239.364V42.6515C239.321 41.3378 238.277 40.2868 236.972 40.2868ZM207 33.7621C205.782 33.7621 204.782 32.755 204.782 31.5289C204.782 30.3028 205.782 29.2956 207 29.2956C208.218 29.2956 209.218 30.3028 209.218 31.5289C209.218 32.755 208.218 33.7621 207 33.7621Z" fill="#FE5E5A"/>
<path d="M172.374 78.8218H159.411V91.8712H172.374V78.8218Z" stroke="#E0E0E0" stroke-width="7" stroke-miterlimit="10"/>
<path d="M173.94 72.4285C173.94 72.4285 166.762 78.6028 164.761 88.0614C164.761 88.0614 161.977 80.0041 157.801 76.1944" stroke="#FE5E5A" stroke-width="6" stroke-miterlimit="10" stroke-linecap="round" stroke-linejoin="round"/>
<path d="M172.374 111.314H159.411V124.363H172.374V111.314Z" stroke="#E0E0E0" stroke-width="7" stroke-miterlimit="10"/>
<path d="M173.94 104.921C173.94 104.921 166.762 111.095 164.761 120.554C164.761 120.554 161.977 112.496 157.801 108.687" stroke="#FE5E5A" stroke-width="6" stroke-miterlimit="10" stroke-linecap="round" stroke-linejoin="round"/>
<path d="M172.374 143.85H159.411V156.899H172.374V143.85Z" stroke="#E0E0E0" stroke-width="7" stroke-miterlimit="10"/>
<path d="M173.94 137.413C173.94 137.413 166.762 143.587 164.761 153.046C164.761 153.046 161.977 144.988 157.801 141.179" stroke="#FE5E5A" stroke-width="6" stroke-miterlimit="10" stroke-linecap="round" stroke-linejoin="round"/>
<path d="M172.374 176.342H159.411V189.391H172.374V176.342Z" stroke="#E0E0E0" stroke-width="7" stroke-miterlimit="10"/>
<path d="M220.311 82.0185H184.467C183.597 82.0185 182.858 81.3179 182.858 80.3983C182.858 79.5225 183.554 78.7781 184.467 78.7781H220.311C221.181 78.7781 221.921 79.4787 221.921 80.3983C221.921 81.3179 221.224 82.0185 220.311 82.0185Z" fill="#969696"/>
<path d="M252.371 82.0185H230.229C229.359 82.0185 228.62 81.3179 228.62 80.3983C228.62 79.5225 229.316 78.7781 230.229 78.7781H252.371C253.241 78.7781 253.98 79.4787 253.98 80.3983C253.98 81.3179 253.284 82.0185 252.371 82.0185Z" fill="#CBCBCB"/>
<path d="M246.28 88.5432H184.467C183.597 88.5432 182.858 87.8426 182.858 86.923C182.858 86.0472 183.554 85.3027 184.467 85.3027H246.28C247.15 85.3027 247.89 86.0034 247.89 86.923C247.89 87.8426 247.194 88.5432 246.28 88.5432Z" fill="#CBCBCB"/>
<path d="M199.17 95.0678H184.467C183.597 95.0678 182.858 94.3672 182.858 93.4476C182.858 92.5718 183.554 91.8274 184.467 91.8274H199.17C200.04 91.8274 200.78 92.528 200.78 93.4476C200.78 94.3234 200.04 95.0678 199.17 95.0678Z" fill="#CBCBCB"/>
<path d="M219.484 95.0678H204.782C203.912 95.0678 203.172 94.3672 203.172 93.4476C203.172 92.5718 203.868 91.8274 204.782 91.8274H219.484C220.354 91.8274 221.094 92.528 221.094 93.4476C221.05 94.3234 220.354 95.0678 219.484 95.0678Z" fill="#CBCBCB"/>
<path d="M252.371 95.0678H225.705C224.835 95.0678 224.096 94.3672 224.096 93.4476C224.096 92.5718 224.792 91.8274 225.705 91.8274H252.414C253.284 91.8274 254.024 92.528 254.024 93.4476C253.98 94.3234 253.284 95.0678 252.371 95.0678Z" fill="#CBCBCB"/>
<path d="M252.371 114.51H184.467C183.597 114.51 182.858 113.81 182.858 112.89C182.858 112.014 183.554 111.27 184.467 111.27H252.371C253.241 111.27 253.98 111.971 253.98 112.89C253.98 113.81 253.284 114.51 252.371 114.51Z" fill="#969696"/>
<path d="M232.665 121.035H184.467C183.597 121.035 182.858 120.334 182.858 119.415C182.858 118.539 183.554 117.795 184.467 117.795H232.665C233.535 117.795 234.275 118.495 234.275 119.415C234.275 120.334 233.535 121.035 232.665 121.035Z" fill="#CBCBCB"/>
<path d="M252.371 121.035H239.625C238.755 121.035 238.015 120.334 238.015 119.415C238.015 118.539 238.711 117.795 239.625 117.795H252.414C253.284 117.795 254.024 118.495 254.024 119.415C253.98 120.334 253.284 121.035 252.371 121.035Z" fill="#CBCBCB"/>
<path d="M220.311 127.56H184.467C183.597 127.56 182.858 126.859 182.858 125.94C182.858 125.064 183.554 124.319 184.467 124.319H220.311C221.181 124.319 221.921 125.02 221.921 125.94C221.921 126.859 221.224 127.56 220.311 127.56Z" fill="#CBCBCB"/>
<path d="M205.956 208.834H160.455C159.846 208.834 159.411 208.352 159.411 207.783C159.411 207.17 159.89 206.732 160.455 206.732H205.912C206.521 206.732 206.956 207.213 206.956 207.783C207 208.352 206.521 208.834 205.956 208.834Z" fill="#FE8784"/>
<path d="M192.732 213.212H160.455C159.846 213.212 159.411 212.731 159.411 212.162C159.411 211.548 159.89 211.111 160.455 211.111H192.732C193.341 211.111 193.776 211.592 193.776 212.162C193.776 212.731 193.298 213.212 192.732 213.212Z" fill="#FE8784"/>
<path d="M208.914 147.046H184.467C183.597 147.046 182.858 146.346 182.858 145.426C182.858 144.55 183.554 143.806 184.467 143.806H208.914C209.784 143.806 210.524 144.507 210.524 145.426C210.524 146.302 209.784 147.046 208.914 147.046Z" fill="#969696"/>
<path d="M252.371 147.046H215.7C214.83 147.046 214.091 146.346 214.091 145.426C214.091 144.55 214.787 143.806 215.7 143.806H252.414C253.284 143.806 254.024 144.507 254.024 145.426C253.98 146.302 253.284 147.046 252.371 147.046Z" fill="#969696"/>
<path d="M220.311 153.571H184.467C183.597 153.571 182.858 152.87 182.858 151.951C182.858 151.075 183.554 150.331 184.467 150.331H220.311C221.181 150.331 221.921 151.031 221.921 151.951C221.921 152.827 221.224 153.571 220.311 153.571Z" fill="#CBCBCB"/>
<path d="M252.371 153.571H230.229C229.359 153.571 228.62 152.87 228.62 151.951C228.62 151.075 229.316 150.331 230.229 150.331H252.371C253.241 150.331 253.98 151.031 253.98 151.951C253.98 152.827 253.284 153.571 252.371 153.571Z" fill="#CBCBCB"/>
<path d="M233.535 179.538H184.467C183.597 179.538 182.858 178.838 182.858 177.918C182.858 177.042 183.554 176.298 184.467 176.298H233.535C234.405 176.298 235.145 176.998 235.145 177.918C235.145 178.838 234.405 179.538 233.535 179.538Z" fill="#969696"/>
<path d="M210.35 186.063H184.467C183.597 186.063 182.858 185.362 182.858 184.443C182.858 183.567 183.554 182.823 184.467 182.823H210.35C211.22 182.823 211.959 183.523 211.959 184.443C211.959 185.319 211.22 186.063 210.35 186.063Z" fill="#CBCBCB"/>
<path d="M252.371 186.063H217.005C216.135 186.063 215.395 185.362 215.395 184.443C215.395 183.567 216.091 182.823 217.005 182.823H252.414C253.284 182.823 254.024 183.523 254.024 184.443C253.98 185.319 253.284 186.063 252.371 186.063Z" fill="#CBCBCB"/>
<path d="M230.925 192.588H184.467C183.597 192.588 182.858 191.887 182.858 190.967C182.858 190.092 183.554 189.347 184.467 189.347H230.925C231.795 189.347 232.535 190.048 232.535 190.967C232.535 191.843 231.795 192.588 230.925 192.588Z" fill="#CBCBCB"/>
<path d="M252.371 192.588H237.711C236.841 192.588 236.102 191.887 236.102 190.967C236.102 190.092 236.797 189.347 237.711 189.347H252.371C253.241 189.347 253.98 190.048 253.98 190.967C253.98 191.843 253.284 192.588 252.371 192.588Z" fill="#CBCBCB"/>
<path d="M164.413 181.465C164.326 181.159 164.283 180.852 164.283 180.458C164.283 176.824 167.11 176.473 167.11 172.357C167.11 171.175 166.632 170.737 165.805 170.737C164.979 170.737 164.5 171.175 164.5 172.357V174.152H162.064V172.532C162.064 169.861 163.369 168.372 165.892 168.372C168.415 168.372 169.72 169.905 169.72 172.532C169.72 176.867 166.675 177.524 166.675 180.546C166.675 180.852 166.719 181.159 166.762 181.465H164.413ZM166.806 182.604V185.1H164.326V182.604H166.806Z" fill="#FE8784"/>
<path d="M309.834 127.297C309.834 121.692 305.31 117.182 299.785 117.182C294.261 117.182 289.737 121.736 289.737 127.297C289.737 131.895 292.782 135.748 296.914 137.018L299.785 144.419L302.657 137.018C306.789 135.748 309.834 131.895 309.834 127.297Z" fill="white"/>
<path d="M298.307 132.289C298.22 131.982 298.176 131.676 298.176 131.282C298.176 127.647 301.003 127.297 301.003 123.181C301.003 121.998 300.525 121.56 299.698 121.56C298.872 121.56 298.393 121.998 298.393 123.181V124.976H295.957V123.356C295.957 120.685 297.262 119.196 299.785 119.196C302.308 119.196 303.613 120.728 303.613 123.356C303.613 127.691 300.568 128.348 300.568 131.369C300.568 131.676 300.612 131.982 300.655 132.289H298.307ZM300.699 133.427V135.924H298.219V133.427H300.699Z" fill="#FE8784"/>
<path d="M289.693 111.139L286.735 116.306H292.651L289.693 111.139Z" fill="#5BE4E8"/>
<path d="M289.693 102.337L286.735 107.504H292.651L289.693 102.337Z" fill="#5BE4E8"/>
<path d="M289.694 93.5352L286.736 98.6586H292.652L289.694 93.5352Z" fill="#5BE4E8"/>
<path d="M315.837 138.507L312.879 143.675H318.795L315.837 138.507Z" fill="#BEF6F7"/>
<path d="M315.837 129.706L312.879 134.873H318.795L315.837 129.706Z" fill="#BEF6F7"/>
<path d="M315.837 120.904L312.879 126.027H318.795L315.837 120.904Z" fill="#BEF6F7"/>
<path d="M309.051 78.9968L306.093 84.164H312.009L309.051 78.9968Z" fill="#A1F5F7"/>
<path d="M309.051 70.1514L306.093 75.3186H312.009L309.051 70.1514Z" fill="#A1F5F7"/>
<path d="M309.051 61.3496L306.093 66.5168H312.009L309.051 61.3496Z" fill="#A1F5F7"/>
<path d="M275.255 196.417L272.361 197.933L290.027 232.121L292.921 230.605L275.255 196.417Z" fill="#3B3E54"/>
<path d="M281.446 206.214L276.815 208.639L289.643 233.465L294.275 231.04L281.446 206.214Z" fill="#E65551"/>
<path d="M255.32 161.575C245.271 166.829 241.356 179.309 246.576 189.425C251.796 199.54 264.194 203.481 274.242 198.227C284.291 192.972 288.206 180.492 282.986 170.376C277.766 160.261 265.368 156.32 255.32 161.575ZM273.416 196.563C264.281 201.336 253.014 197.789 248.273 188.549C243.531 179.353 247.055 168.012 256.233 163.239C265.368 158.466 276.635 162.012 281.376 171.252C286.118 180.448 282.551 191.79 273.416 196.563Z" fill="#3B3E54"/>
<path opacity="0.61" d="M274.426 196.014C283.261 190.671 286.12 179.13 280.812 170.236C275.505 161.343 264.04 158.465 255.205 163.808C246.37 169.151 243.511 180.692 248.819 189.586C254.127 198.479 265.592 201.357 274.426 196.014Z" fill="white"/>
<path d="M259.809 205.506H216.222V234.713H259.809V205.506Z" fill="#FE716D"/>
<path d="M231.882 206.688V201.346H244.323V207.126" stroke="#458FB0" stroke-width="5" stroke-miterlimit="10" stroke-linecap="round" stroke-linejoin="round"/>
<path d="M255.285 220.088H220.79C219.05 220.088 217.658 218.686 217.658 216.935V205.506H258.417V216.935C258.417 218.686 256.982 220.088 255.285 220.088Z" fill="#E65551"/>
<path d="M239.103 224.292H236.928C236.711 224.292 236.493 224.116 236.493 223.897L236.015 220.132H240.06L239.582 223.897C239.538 224.116 239.364 224.292 239.103 224.292Z" fill="#2B596E"/>
<path d="M142.185 144.069L140.445 143.412L140.793 145.295L142.185 144.069Z" fill="#FE8784"/>
<path d="M140.793 145.295L140.445 143.412L137.009 142.098L138.053 147.747L140.793 145.295Z" fill="white"/>
<path d="M137.009 142.098L136.835 142.01L39.1336 160.315L40.2211 166.182L137.922 147.878L138.053 147.747L137.009 142.098Z" fill="#FE5E5A"/>
<path d="M309.051 245.836V250.828H278.34" stroke="#FE716D" stroke-width="6" stroke-miterlimit="10"/>
<path d="M314.401 241.597V246.501H320.752V241.597H314.401Z" fill="#FE8784"/>
<path d="M192.08 244.041C192.08 244.391 191.775 244.698 191.427 244.698H187.86C187.512 244.698 187.208 244.391 187.208 244.041C187.208 243.691 187.512 243.384 187.86 243.384H191.427C191.775 243.384 192.08 243.691 192.08 244.041Z" fill="#3D4061"/>
<path d="M189.992 243.034V245.048L194.907 247.369V240.713L189.992 243.034Z" fill="#FE8784"/>
<path d="M315.533 240.713H194.907V247.369H315.533V240.713Z" fill="#A1F5F7"/>
<path d="M302.439 71.5964C302.439 65.9913 297.915 61.481 292.391 61.481C286.823 61.481 282.342 66.0351 282.342 71.5964C282.342 76.1943 285.387 80.0478 289.52 81.3177L292.391 88.7182L295.262 81.3177C299.438 80.0478 302.439 76.1943 302.439 71.5964Z" fill="white"/>
<path d="M291.477 75.9754L291.172 70.1513V63.4077H293.695V70.1513L293.391 75.9754H291.477ZM293.608 77.1139V79.5661H291.172V77.1139H293.608Z" fill="#FE8784"/>
<path d="M319.883 100.322C319.883 94.7174 315.359 90.207 309.834 90.207C304.31 90.207 299.786 94.7612 299.786 100.322C299.786 104.92 302.831 108.774 306.963 110.044L309.834 117.444L312.705 110.044C316.838 108.774 319.883 104.92 319.883 100.322Z" fill="white"/>
<path d="M306.441 100.016V102.468H304.005V100.016H306.441Z" fill="#FE8784"/>
<path d="M310.704 100.016V102.468H308.268V100.016H310.704Z" fill="#FE8784"/>
<path d="M314.967 100.016V102.468H312.531V100.016H314.967Z" fill="#FE8784"/>
<path d="M350.333 149.674H329.235V208.834H350.333V149.674Z" fill="#FE716D"/>
<path d="M371.43 149.674H350.333V208.834H371.43V149.674Z" fill="#E65551"/>
<path d="M385.041 173.865C387.637 166.761 386.013 159.621 381.414 157.917C376.814 156.214 370.981 160.592 368.384 167.696C365.788 174.8 367.411 181.94 372.011 183.644C376.611 185.348 382.444 180.969 385.041 173.865Z" stroke="#E65551" stroke-width="6" stroke-miterlimit="10"/>
<path d="M355.683 143.543C355.683 133.822 361.773 133.822 361.773 124.144C361.773 114.423 355.683 114.423 355.683 104.745C355.683 95.0241 361.773 95.0241 361.773 85.3466C361.773 75.6252 355.683 75.6252 355.683 65.9477C355.683 56.2263 361.773 56.2263 361.773 46.5488C361.773 36.8275 355.683 36.8275 355.683 27.1499" stroke="white" stroke-width="3" stroke-miterlimit="10" stroke-linecap="round" stroke-linejoin="round"/>
<path d="M347.461 143.543C347.461 133.822 353.551 133.822 353.551 124.144C353.551 114.423 347.461 114.423 347.461 104.745C347.461 95.0239 353.551 95.0239 353.551 85.3463C353.551 75.625 347.461 75.625 347.461 65.9475C347.461 56.2261 353.551 56.2261 353.551 46.5486" stroke="white" stroke-width="3" stroke-miterlimit="10" stroke-linecap="round" stroke-linejoin="round"/>
<path d="M331.671 197.448C319.622 197.448 309.486 205.549 306.354 216.672H356.988C353.856 205.549 343.721 197.448 331.671 197.448Z" fill="#2B596E"/>
<path d="M400.749 197.448C388.699 197.448 378.564 205.549 375.432 216.672H426.066C422.934 205.549 412.798 197.448 400.749 197.448Z" fill="#2B596E"/>
<path d="M367.863 189.216C350.681 189.216 336.195 200.82 331.671 216.672H404.012C399.531 200.82 385.046 189.216 367.863 189.216Z" fill="#2B596E"/>
<path d="M328.974 224.335C329.018 224.292 329.061 224.248 329.105 224.204C329.366 223.81 329.235 223.241 328.844 222.978L323.45 219.562C323.058 219.299 322.493 219.431 322.232 219.825C321.971 220.219 322.101 220.788 322.493 221.051L327.887 224.467C328.235 224.729 328.713 224.642 328.974 224.335Z" fill="white"/>
<path d="M328.887 222.715C328.887 222.715 330.888 223.897 330.584 224.335C330.236 224.773 324.929 230.685 324.667 230.422C323.667 229.678 327.321 224.16 327.843 223.81C328.365 223.503 328.626 222.54 328.887 222.715Z" fill="#3C6063"/>
<path d="M283.821 145.995C283.821 145.995 283.256 141.441 282.255 140.828C281.254 140.215 281.341 144.638 283.038 146.827L283.821 145.995Z" fill="white"/>
<path d="M284.213 145.47C283.56 145.82 282.908 146.127 282.255 146.433C287.084 156.855 292.913 160.534 304.049 159.351C305.745 159.176 305.876 158.563 305.615 157.162C305.832 156.987 305.832 157.03 305.615 157.162C305.31 155.761 304.919 155.542 303.222 155.717C291.912 156.899 290.651 154.841 284.213 145.47Z" fill="#3C6063"/>
<path d="M302.787 233.093C302.831 233.093 302.918 233.093 302.961 233.093C303.44 233.006 303.744 232.524 303.657 232.042L302.396 225.78C302.309 225.299 301.83 224.992 301.352 225.08C300.873 225.167 300.568 225.649 300.655 226.131L301.917 232.393C302.004 232.831 302.352 233.093 302.787 233.093Z" fill="white"/>
<path d="M300.829 229.459C301.786 229.415 302.7 229.327 303.657 229.196C300.829 214.089 298.741 193.814 306.223 179.714C303.961 178.575 301.656 177.48 299.35 176.385C293.87 188.69 298.524 216.453 300.829 229.459Z" fill="#3D4061"/>
<path d="M325.146 223.81C325.798 223.065 326.451 222.321 327.06 221.533C310.356 208.746 305.484 198.631 308.268 177.261C305.701 176.867 303.178 176.473 300.612 176.123C300.873 199.769 307.833 209.272 325.146 223.81Z" fill="#292B3B"/>
<path d="M303.875 231.911C303.875 231.911 304.44 234.188 303.875 234.276C303.309 234.363 295.435 234.582 295.392 234.232C295.218 232.962 301.699 231.824 302.308 231.955C302.918 232.086 303.831 231.605 303.875 231.911Z" fill="#3C6063"/>
<path d="M308.573 181.202C307.355 180.721 305.571 180.239 302.526 180.108C300.438 180.02 298.785 180.108 297.524 180.283C302.918 168.635 303.831 162.854 303.353 159.57C303.092 157.95 303.744 156.286 305.049 155.323L305.571 154.928C307.92 153.089 311.357 154.403 311.922 157.337C312.096 158.3 312.27 159.439 312.314 160.709C312.575 166.708 311.748 173.233 308.573 181.202Z" fill="#5C9399"/>
<path d="M303.657 162.154C303.657 162.154 304.179 157.337 303.309 156.505C302.439 155.629 301.438 160.14 302.657 162.811L303.657 162.154Z" fill="white"/>
<path d="M304.484 162.023C303.701 162.11 302.918 162.242 302.135 162.329C304.962 180.546 321.318 172.182 312.009 157.775C310.574 155.585 309.791 156.417 308.964 156.943C308.355 157.337 307.79 158.563 309.008 160.14C316.925 170.474 307.007 175.335 304.484 162.023Z" fill="#3C6063"/>
<path d="M309.529 149.893C308.529 152.389 305.962 153.702 304.44 153.089C302.917 152.476 303.004 150.155 304.005 147.659C305.005 145.163 306.745 144.375 308.268 145.032C309.79 145.689 310.573 147.397 309.529 149.893Z" fill="white"/>
<path d="M310.312 151.206C310.095 151.776 309.225 152.301 308.79 152.126C308.355 151.951 308.442 151.425 308.703 150.856C308.92 150.287 309.486 149.849 309.921 150.024C310.312 150.199 310.53 150.637 310.312 151.206Z" fill="white"/>
<path d="M310.53 148.448C310.53 148.448 310.66 146.652 309.66 145.557C308.659 144.463 306.223 143.587 304.788 145.601C304.788 145.601 303.918 147.134 305.832 148.01C307.746 148.929 307.746 147.747 308.355 149.061C309.007 150.374 310.138 149.936 310.225 150.199L310.53 148.448Z" fill="#1A1A1A"/>
<path d="M309.095 149.98L306.311 149.718C306.267 150.112 305.963 153.79 306.137 155.147C306.224 155.585 306.92 155.761 307.703 155.585C308.399 155.41 308.877 155.016 308.877 154.622C308.79 153.79 308.964 151.338 309.095 149.98Z" fill="white"/>
<path d="M308.355 150.9C307.877 150.549 307.572 150.987 306.702 151.732C305.832 152.476 304.049 152.651 303.483 150.374C303.135 148.929 302.743 151.469 302.743 151.469C302.787 152.695 303.266 153.352 304.179 153.746C305.441 154.272 307.181 153.79 308.529 152.564C308.703 151.995 308.703 151.163 308.355 150.9Z" fill="#1A1A1A"/>
<path d="M303.396 150.331C303.396 150.331 303.439 150.331 303.483 150.374C304.005 150.55 306.441 151.338 306.832 152.214C307.267 153.177 305.571 152.038 305.049 151.469C304.483 150.9 304.005 151.075 303.483 151.031C303.004 150.987 302.656 150.462 303.396 150.331Z" fill="#1A1A1A"/>
<path d="M56.4465 227.226C45.8325 227.226 36.8715 234.407 34.0875 244.172H78.762C75.978 234.407 67.0605 227.226 56.4465 227.226Z" fill="#2B596E"/>
<path d="M117.39 227.226C106.776 227.226 97.815 234.407 95.031 244.172H139.706C136.965 234.407 128.004 227.226 117.39 227.226Z" fill="#2B596E"/>
<path d="M88.3321 219.956C73.1506 219.956 60.405 230.203 56.403 244.172H120.218C116.303 230.203 103.514 219.956 88.3321 219.956Z" fill="#2B596E"/>
<path d="M88.8975 232.918C88.854 232.918 88.767 232.918 88.7235 232.918C88.245 232.831 87.9405 232.349 88.0275 231.867L89.289 225.605C89.376 225.124 89.8545 224.817 90.333 224.905C90.8115 224.992 91.116 225.474 91.029 225.956L89.7675 232.217C89.6805 232.655 89.3325 232.918 88.8975 232.918Z" fill="white"/>
<path d="M87.81 231.736C87.81 231.736 87.2445 234.013 87.81 234.101C88.3755 234.144 96.249 234.407 96.2925 234.057C96.4665 232.787 89.985 231.648 89.376 231.78C88.7235 231.867 87.897 231.429 87.81 231.736Z" fill="#1A1C2E"/>
<path d="M118.826 154.753C118.826 154.753 117.956 150.243 116.912 149.717C115.911 149.192 116.259 153.571 118.086 155.629L118.826 154.753Z" fill="white"/>
<path d="M119.608 154.622C118.782 154.491 117.955 154.403 117.129 154.272C116.52 167.146 110.256 174.284 105.906 157.906C105.254 155.41 103.905 156.768 102.905 157.6C102.687 157.249 102.687 157.249 102.905 157.6C101.904 158.476 101.6 158.169 102.687 160.665C109.734 177.086 119.913 170.693 119.608 154.622Z" fill="#292B3B"/>
<path d="M104.34 232.918C104.297 232.918 104.21 232.918 104.166 232.918C103.688 232.831 103.383 232.349 103.47 231.867L104.732 225.605C104.819 225.124 105.297 224.817 105.776 224.905C106.254 224.992 106.559 225.474 106.472 225.956L105.21 232.217C105.123 232.655 104.775 232.918 104.34 232.918Z" fill="white"/>
<path d="M106.298 229.284C105.341 229.24 104.427 229.152 103.47 229.021C106.298 213.913 108.386 193.639 100.904 179.538C103.166 178.4 105.471 177.305 107.777 176.21C113.258 188.515 108.603 216.278 106.298 229.284Z" fill="#292B3B"/>
<path d="M90.768 228.846C89.811 228.583 88.8975 228.276 87.984 227.882C94.9875 214.088 100.164 192.325 98.9025 176.604C101.469 176.473 103.992 176.385 106.559 176.298C105.645 192.062 96.858 214.658 90.768 228.846Z" fill="#3B3E54"/>
<path d="M103.253 231.736C103.253 231.736 102.687 234.013 103.253 234.101C103.818 234.144 111.692 234.407 111.735 234.057C111.909 232.787 105.428 231.648 104.819 231.78C104.166 231.867 103.296 231.429 103.253 231.736Z" fill="#1A1C2E"/>
<path d="M109.821 181.334C108.342 180.852 105.254 181.64 103.775 181.334C101.6 180.896 100.512 181.071 98.337 181.159C98.076 174.327 98.2935 167.146 97.815 160.446C97.728 159.045 97.641 158.213 97.902 157.118C98.25 155.717 98.9895 154.709 99.9465 154.184C101.121 153.527 102.6 153.571 104.123 154.359C104.34 154.447 104.558 154.578 104.775 154.753C105.689 155.454 106.515 156.811 106.645 159.351C106.95 165.745 108.647 174.721 109.821 181.334Z" fill="#292B3B"/>
<path d="M89.3325 184.311C89.3325 184.311 90.333 189.041 89.5935 189.96C88.8105 190.924 87.375 186.501 88.2885 183.742L89.3325 184.311Z" fill="white"/>
<path d="M89.898 184.881C89.1585 184.793 88.4625 184.706 87.723 184.618C89.5935 172.313 90.072 168.635 96.945 158.257C97.989 156.68 98.424 156.812 99.6855 157.862C99.9465 157.731 99.9465 157.687 99.6855 157.862C100.904 158.913 100.73 159.308 99.555 160.884C91.986 171.175 93.2475 172.839 89.898 184.881Z" fill="#292B3B"/>
<path d="M104.731 154.841L104.601 159.132L104.427 164.518L102.209 159.526L99.8595 154.272C101.034 153.615 102.513 153.659 104.035 154.447C104.296 154.534 104.514 154.666 104.731 154.841Z" fill="#BEF6F7"/>
<path d="M100.251 150.112C101.73 152.389 104.471 153.177 105.819 152.301C107.211 151.382 106.689 149.148 105.21 146.871C103.731 144.594 101.904 144.2 100.512 145.076C99.1635 145.952 98.772 147.835 100.251 150.112Z" fill="white"/>
<path d="M99.729 151.557C100.077 152.082 101.034 152.433 101.382 152.17C101.774 151.907 101.6 151.425 101.252 150.9C100.904 150.374 100.294 150.068 99.903 150.331C99.555 150.593 99.381 151.031 99.729 151.557Z" fill="white"/>
<path d="M100.556 149.718L103.34 149.455C103.383 149.849 103.688 153.527 103.514 154.885C103.427 155.323 102.731 155.498 101.948 155.323C101.252 155.148 100.773 154.753 100.773 154.359C100.86 153.527 100.686 151.075 100.556 149.718Z" fill="white"/>
<path d="M101.599 150.9C101.991 150.462 102.382 150.856 103.383 151.425C104.383 151.995 106.167 151.863 106.297 149.499C106.384 148.01 107.211 150.462 107.211 150.462C107.385 151.688 107.037 152.432 106.254 152.958C105.123 153.702 103.339 153.571 101.73 152.651C101.469 151.995 101.338 151.206 101.599 150.9Z" fill="#1A1C2E"/>
<path d="M106.385 149.411C106.385 149.411 106.341 149.411 106.298 149.455C105.819 149.718 103.601 150.988 103.383 151.907C103.122 152.958 104.558 151.513 104.993 150.856C105.428 150.199 105.95 150.287 106.428 150.156C106.907 149.98 107.124 149.367 106.385 149.411Z" fill="#1A1C2E"/>
<path d="M98.9895 148.885C98.9895 148.885 98.511 147.134 99.294 145.864C100.077 144.594 102.296 143.28 104.079 144.988C104.079 144.988 105.21 146.302 103.514 147.572C101.817 148.842 101.599 147.659 101.208 149.061C100.816 150.462 99.642 150.243 99.5985 150.55L98.9895 148.885Z" fill="#1A1C2E"/>
<path d="M104.601 159.132L104.47 164.475L102.252 159.483L102.339 156.242H103.296L104.601 159.132Z" fill="#FE5E5A"/>
<path d="M120.644 190.385L52.276 184.231L51.3153 195.048L119.684 201.202L120.644 190.385Z" fill="white"/>
<path d="M60.231 187.289L60.9705 189.216L62.9715 189.698L61.4055 191.011L61.536 193.026L59.8395 191.931L57.969 192.719L58.491 190.748L57.1425 189.172L59.187 189.041L60.231 187.289Z" fill="#5BE4E8"/>
<path d="M70.41 188.209L71.1495 190.135L73.1505 190.617L71.541 191.931L71.715 193.945L70.0185 192.85L68.1045 193.639L68.6265 191.668L67.3215 190.092L69.366 189.96L70.41 188.209Z" fill="#57DADE"/>
<path d="M80.589 189.128L81.3285 191.055L83.3295 191.537L81.72 192.807L81.894 194.865L80.1975 193.77L78.2835 194.558L78.8055 192.544L77.5005 191.011L79.545 190.88L80.589 189.128Z" fill="#4DC1C4"/>
<path d="M90.768 190.048L91.5075 191.975L93.465 192.456L91.899 193.726L92.073 195.784L90.333 194.69L88.4625 195.478L88.9845 193.463L87.6795 191.931L89.6805 191.799L90.768 190.048Z" fill="#44ABAD"/>
<path d="M100.947 190.968L101.687 192.894L103.644 193.376L102.078 194.646L102.252 196.704L100.512 195.609L98.6415 196.397L99.1636 194.383L97.815 192.85L99.8596 192.719L100.947 190.968Z" fill="#3B9596"/>
<path d="M111.083 191.887L111.822 193.814L113.823 194.295L112.257 195.565L112.388 197.623L110.691 196.485L108.821 197.273L109.343 195.303L107.994 193.77L110.039 193.639L111.083 191.887Z" fill="#3C6063"/>
<path d="M127.83 122.261C138.052 120.247 142.794 116.35 142.098 112.803L108.081 119.503C108.081 119.459 117.607 124.276 127.83 122.261Z" fill="#3C6063"/>
<path d="M125.307 109.431C115.085 111.445 108.038 119.502 108.038 119.502L142.055 112.803C141.402 109.256 135.53 107.417 125.307 109.431Z" fill="#5C9399"/>
<path d="M124.263 107.767C130.266 99.184 131.006 93.0535 128.048 90.9954L108.081 119.546C108.081 119.502 118.26 116.35 124.263 107.767Z" fill="#3C6063"/>
<path d="M113.649 100.235C107.646 108.818 108.081 119.503 108.081 119.503L128.048 90.9515C125.133 88.8934 119.652 91.6522 113.649 100.235Z" fill="#5C9399"/>
<path d="M97.728 83.6824C95.292 73.4794 91.2465 68.8814 87.723 69.7135L95.7705 103.651C95.7705 103.651 100.121 93.8416 97.728 83.6824Z" fill="#3C6063"/>
<path d="M85.0695 86.7033C87.5055 96.9064 95.7705 103.65 95.7705 103.65L87.723 69.7129C84.243 70.5449 82.677 76.5003 85.0695 86.7033Z" fill="#5C9399"/>
<path d="M67.626 111.051C58.9695 105.183 52.8796 104.614 50.8786 107.592L79.632 127.078C79.632 127.078 76.239 116.919 67.626 111.051Z" fill="#3C6063"/>
<path d="M60.3615 121.911C69.018 127.779 79.632 127.078 79.632 127.078L50.8785 107.592C48.8775 110.569 51.7485 116.043 60.3615 121.911Z" fill="#5C9399"/>
<path d="M61.9275 125.721C51.792 128.173 47.268 132.333 48.0945 135.836L81.7635 127.604C81.807 127.604 72.063 123.225 61.9275 125.721Z" fill="#3C6063"/>
<path d="M65.0157 138.42C75.1512 135.967 81.8067 127.604 81.8067 127.604L48.1378 135.836C48.9643 139.339 54.8803 140.872 65.0157 138.42Z" fill="#5C9399"/>
<path d="M111.561 91.6958C117.564 83.113 118.304 76.9824 115.345 74.9243L95.379 103.475C95.379 103.475 105.558 100.279 111.561 91.6958Z" fill="#3C6063"/>
<path d="M100.947 84.164C94.944 92.7468 95.379 103.432 95.379 103.432L115.345 74.8806C112.431 72.8663 106.95 75.625 100.947 84.164Z" fill="#5C9399"/>
<path d="M137.009 35.1631C139.531 35.1631 141.576 33.1046 141.576 30.5652C141.576 28.0259 139.531 25.9673 137.009 25.9673C134.486 25.9673 132.441 28.0259 132.441 30.5652C132.441 33.1046 134.486 35.1631 137.009 35.1631Z" fill="white"/>
<path d="M36.219 189.741C38.7416 189.741 40.7865 187.683 40.7865 185.143C40.7865 182.604 38.7416 180.545 36.219 180.545C33.6965 180.545 31.6515 182.604 31.6515 185.143C31.6515 187.683 33.6965 189.741 36.219 189.741Z" fill="white"/>
<path d="M336.238 170.78C338.761 170.78 340.806 168.722 340.806 166.182C340.806 163.643 338.761 161.584 336.238 161.584C333.716 161.584 331.671 163.643 331.671 166.182C331.671 168.722 333.716 170.78 336.238 170.78Z" fill="white"/>
<path d="M144.708 23.5152C146.144 23.5152 147.362 22.3328 147.362 20.844C147.362 22.2891 148.536 23.5152 150.015 23.5152C148.58 23.5152 147.362 24.6975 147.362 26.1864C147.362 24.6975 146.187 23.5152 144.708 23.5152Z" fill="white"/>
<path d="M24.0826 193.945C25.5181 193.945 26.7361 192.763 26.7361 191.274C26.7361 192.719 27.9106 193.945 29.3896 193.945C27.9541 193.945 26.7361 195.127 26.7361 196.616C26.7361 195.127 25.5616 193.945 24.0826 193.945Z" fill="white"/>
<path d="M320.753 172.926C322.188 172.926 323.406 171.744 323.406 170.255C323.406 171.7 324.581 172.926 326.06 172.926C324.624 172.926 323.406 174.108 323.406 175.597C323.406 174.108 322.232 172.926 320.753 172.926Z" fill="white"/>
<path d="M229.272 46.5047C230.707 46.5047 231.925 45.3224 231.925 43.8335C231.925 45.2786 233.1 46.5047 234.579 46.5047C233.143 46.5047 231.925 47.687 231.925 49.1759C231.882 47.7308 230.707 46.5047 229.272 46.5047Z" fill="white"/>
</g>
<defs>
<clipPath id="clip0">
<rect width="522" height="275" fill="white" transform="translate(-54)"/>
</clipPath>
</defs>
</svg>
